<?xml version="1.0" encoding="UTF-8" standalone="no"?>
<!-- Created with Inkscape (http://www.inkscape.org/) -->

<svg
   xmlns:dc="http://purl.org/dc/elements/1.1/"
   xmlns:cc="http://creativecommons.org/ns#"
   xmlns:rdf="http://www.w3.org/1999/02/22-rdf-syntax-ns#"
   xmlns:svg="http://www.w3.org/2000/svg"
   xmlns="http://www.w3.org/2000/svg"
   xmlns:xlink="http://www.w3.org/1999/xlink"
   xmlns:sodipodi="http://sodipodi.sourceforge.net/DTD/sodipodi-0.dtd"
   xmlns:inkscape="http://www.inkscape.org/namespaces/inkscape"
   width="52.277367mm"
   height="61.048496mm"
   viewBox="0 0 52.277367 61.048496"
   version="1.1"
   id="svg6727"
   inkscape:version="0.92.4 (5da689c313, 2019-01-14)"
   sodipodi:docname="train-tracks-graphic2.svg">
  <defs
     id="defs6721">
    <clipPath
       clipPathUnits="userSpaceOnUse"
       id="clipPath6630">
      <g
         inkscape:label="Clip"
         id="use6632">
        <path
           inkscape:connector-curvature="0"
           id="path7335"
           d="m 88.078709,166.69489 c 2.689729,-5.23704 4.890415,-9.55774 4.890415,-9.60154 0,-0.0438 -0.432496,-0.15785 -0.961103,-0.25343 -1.598093,-0.28897 -3.030346,-1.27334 -3.627578,-2.49319 -0.528472,-1.07941 -0.537206,-1.36429 -0.537206,-17.52312 0,-11.85677 0.08384,-16.70257 0.301406,-17.42059 0.467265,-1.54205 2.036746,-3.12586 3.711607,-3.74546 1.39878,-0.51747 1.765874,-0.52856 15.17713,-0.45861 13.55804,0.0707 13.75777,0.0791 14.78634,0.62352 1.38687,0.734 2.83196,2.35268 3.16771,3.54822 0.16825,0.59907 0.27247,4.42448 0.27335,10.03323 l 0.002,9.065 0.64715,0.29154 c 0.57636,0.25966 0.73889,0.20363 1.48589,-0.51226 0.8858,-0.8489 2.10305,-1.07541 2.6853,-0.49971 0.53865,0.5326 0.35621,1.77197 -0.37138,2.52287 l -0.67892,0.70069 0.743,0.91096 c 2.55739,3.13552 3.55505,5.83792 3.55368,9.62588 -7.7e-4,1.99254 -0.129,2.90384 -0.60021,4.26392 -1.21319,3.50167 -4.14788,6.85241 -7.38924,8.43676 l -1.33435,0.65222 2.80804,5.54859 c 1.54432,3.05172 2.80794,5.6066 2.80794,5.6775 0,0.0709 -0.84097,0.12891 -1.86882,0.12891 h -1.86882 l -0.69134,-1.39378 -0.69134,-1.39378 H 106.55273 88.606551 l -0.691342,1.39378 -0.691342,1.39378 H 85.20608 83.188293 Z m -0.563738,7.62129 0.691342,-1.39377 h 18.274447 18.27443 l 0.69135,1.39377 0.69135,1.39378 h 1.35622 c 0.74592,0 1.35623,-0.0563 1.35623,-0.12511 0,-0.0688 -1.1816,-2.46505 -2.62577,-5.32498 -2.00304,-3.96665 -2.71724,-5.1639 -3.01146,-5.04822 -0.95393,0.37507 -3.84438,0.85977 -5.12713,0.85977 -0.7753,0 -2.21691,-0.16908 -3.20359,-0.37572 -1.4153,-0.29642 -3.97139,-0.37573 -12.10991,-0.37573 -6.550621,0 -10.315944,-0.0904 -10.315944,-0.2478 0,-0.13629 0.312357,-0.87753 0.694127,-1.64719 l 0.694126,-1.3994 h 6.738411 c 3.70612,0 6.73521,-0.0855 6.73129,-0.19006 -0.004,-0.10453 -0.34991,-0.52266 -0.76888,-0.92919 -0.41897,-0.40651 -0.76176,-0.83414 -0.76176,-0.95029 0,-0.11615 -2.41709,-0.21119 -5.37131,-0.21119 h -5.371294 l 0.757184,-1.58383 0.757181,-1.58384 3.561789,-0.0701 3.56178,-0.0701 -0.3862,-1.19693 c -0.62455,-1.93562 -0.56698,-5.90664 0.1169,-8.06255 1.11248,-3.50707 3.79874,-6.72274 7.24356,-8.67113 l 1.40962,-0.79729 -9.12796,-0.006 c -8.841997,-0.006 -9.149122,-0.022 -9.803265,-0.53081 l -0.675299,-0.52522 9.58e-4,-7.52069 c 8.81e-4,-6.91114 0.03998,-7.58394 0.482331,-8.30121 0.807524,-1.30936 1.86557,-1.6269 5.420826,-1.6269 3.015379,0 3.158319,-0.0243 3.729369,-0.63354 0.58287,-0.62186 0.6651,-0.63354 4.46271,-0.63354 3.7976,0 3.87983,0.0117 4.4627,0.63354 0.57106,0.60926 0.71399,0.63354 3.72938,0.63354 3.48084,0 4.50537,0.28999 5.39656,1.52748 0.46819,0.65013 0.50755,1.12912 0.50755,6.17742 v 5.47264 h 1.53776 1.53777 v 1.52049 1.52048 h -1.52075 c -1.46846,0 -1.52352,0.024 -1.60183,0.69689 -0.0761,0.65416 0.0132,0.7224 1.45667,1.11284 0.84576,0.22878 1.79726,0.49866 2.11442,0.59975 l 0.57666,0.18378 v -8.98032 -8.98034 l -0.7048,-1.37462 c -0.52921,-1.03215 -1.01901,-1.56436 -1.96585,-2.13611 l -1.26104,-0.76148 -13.34774,-0.0773 c -7.34125,-0.0425 -13.826135,-0.009 -14.410839,0.075 -1.645216,0.23575 -3.287796,1.45439 -4.057766,3.01047 l -0.656524,1.3268 0.06945,16.8386 0.06945,16.83861 0.615381,0.85313 c 0.726741,1.00751 2.332435,1.79436 3.67755,1.80216 0.528607,0.003 0.961104,0.0632 0.961104,0.1336 0,0.0704 -2.133651,4.3462 -4.741446,9.5017 -2.607795,5.15552 -4.741446,9.43129 -4.741446,9.50171 0,0.0704 0.577915,0.12804 1.284257,0.12804 h 1.284256 z m 2.684852,-5.25835 0.847093,-1.58384 h 15.505814 15.50581 l 0.84709,1.58384 0.8471,1.58385 h -17.2 -17.200002 z m 32.499457,1.06692 c 0,-0.14493 -0.23302,-0.71511 -0.51781,-1.26708 l -0.51779,-1.00355 H 106.55273 91.441776 l -0.517798,1.00355 c -0.284788,0.55197 -0.517797,1.12215 -0.517797,1.26708 0,0.17961 5.140643,0.26351 16.146549,0.26351 11.0059,0 16.14655,-0.0839 16.14655,-0.26351 z M 94.049657,152.6143 c -1.602083,-0.45191 -2.0417,-2.59038 -0.772808,-3.75925 1.345967,-1.23986 4.305574,-0.24537 4.305574,1.44677 0,0.89787 -0.687889,2.03667 -1.342734,2.22288 -1.109816,0.31558 -1.353546,0.32555 -2.190032,0.0896 z m 1.989564,-0.5958 c 2.121433,-1.08472 0.607141,-3.91044 -1.693297,-3.15975 -1.582162,0.51629 -1.827118,2.38145 -0.412439,3.14042 0.894463,0.47988 1.19954,0.48267 2.105736,0.0193 z m 24.662439,13.18899 c 7.0043,-1.23496 12.09896,-7.00673 12.09155,-13.6986 -0.004,-3.56885 -0.99767,-6.28834 -3.31463,-9.0711 l -1.22096,-1.46643 0.83064,-0.84737 c 1.73104,-1.76591 0.284,-3.027 -1.49853,-1.30597 l -0.94257,0.91006 -1.78173,-0.86653 c -0.97995,-0.47661 -2.53138,-1.00488 -3.44763,-1.17393 -0.91626,-0.16907 -1.81008,-0.3464 -1.98628,-0.39407 -0.19626,-0.0531 -0.32037,-0.53149 -0.32037,-1.23499 v -1.14831 h 2.06583 2.06583 l -0.0795,-0.9503 -0.0795,-0.95031 -4.93367,-0.0689 -4.93366,-0.0689 v 1.01914 1.01912 h 1.92221 1.9222 v 1.12888 c 0,1.10729 -0.0184,1.13193 -0.9611,1.2878 -5.59325,0.92482 -10.10187,4.47909 -11.89478,9.377 -0.69232,1.89131 -0.92527,5.68325 -0.47262,7.69362 1.02557,4.55495 5.24044,9.02832 9.73437,10.33137 2.89238,0.83866 4.56514,0.94931 7.235,0.47858 z m -5.87971,-2.05208 c -2.09855,-0.55881 -3.74926,-1.50328 -5.56872,-3.18616 -5.77389,-5.3405 -4.92797,-14.15713 1.79728,-18.73224 3.2999,-2.24488 8.46921,-2.64985 12.32082,-0.96526 4.99763,2.18585 8.14521,7.7718 7.27005,12.90201 -0.82485,4.83533 -4.64736,8.85024 -9.50373,9.98211 -2.02569,0.47212 -4.54166,0.47194 -6.3157,-5.1e-4 z m 4.2892,-0.36958 c 0,-0.15089 -0.85545,-0.24129 -2.11443,-0.22344 -1.52003,0.0216 -1.89828,0.0844 -1.34555,0.22344 1.15244,0.28995 3.45998,0.28995 3.45998,0 z m 2.85471,-0.40181 c 0.11688,-0.0714 -0.41995,-1.37677 -1.19295,-2.90078 -0.77301,-1.524 -1.40547,-2.82983 -1.40547,-2.90184 0,-0.072 0.4325,-0.13344 0.96111,-0.13649 1.34512,-0.008 2.95081,-0.79465 3.67755,-1.80217 0.60283,-0.83573 0.61694,-0.97756 0.69193,-6.95828 l 0.0765,-6.10515 -1.58339,-0.7026 c -6.01794,-2.67035 -13.14621,-0.19089 -16.02836,5.57521 -0.79789,1.59627 -0.94743,2.17846 -1.05971,4.12562 -0.10709,1.85696 -0.0305,2.59326 0.42311,4.07001 l 0.55385,1.80292 h 4.73739 4.7374 l 0.56032,1.14036 c 0.34585,0.70385 0.73144,1.14037 1.00733,1.14037 0.24583,0 0.62499,0.25129 0.84257,0.55843 0.33736,0.47624 0.34432,0.63475 0.0474,1.07701 -0.47267,0.70389 -1.49785,0.67483 -1.82018,-0.0516 -0.24473,-0.55156 -0.36817,-0.57018 -3.78034,-0.57018 -1.94004,0 -3.52735,0.0595 -3.52735,0.13224 0,0.0727 0.70987,0.58589 1.5775,1.14037 l 1.57751,1.00812 h 3.17198 c 2.67477,0 3.19672,0.0637 3.32978,0.40656 0.12425,0.32017 0.376,0.37205 1.18491,0.24415 0.56491,-0.0894 1.12275,-0.22083 1.23963,-0.29226 z m -1.88936,-7.93541 c -1.09635,-1.01405 -1.9684,-1.58875 -2.71063,-1.78637 -0.85195,-0.22683 -1.18482,-0.47908 -1.50313,-1.13908 -0.47604,-0.98706 -0.31007,-1.98137 0.43619,-2.61316 0.41727,-0.35325 0.50557,-0.75015 0.50557,-2.2723 v -1.8443 h 1.28148 1.28146 v 1.85644 c 0,1.67093 0.0665,1.91783 0.66443,2.4708 0.54454,0.50349 0.64213,0.7808 0.54076,1.53679 -0.11431,0.85257 -0.01,1.03413 1.38298,2.39661 l 1.50664,1.47418 -0.68573,0.70771 c -0.37715,0.38924 -0.77527,0.70771 -0.8847,0.70771 -0.10944,0 -0.92633,-0.67276 -1.81532,-1.49503 z m 2.34031,0.38584 c 0.23365,-0.27837 -0.12287,-0.73566 -1.76268,-2.26095 l -2.05557,-1.912 v -2.68063 c 0,-2.51169 -0.0323,-2.68063 -0.51258,-2.68063 -0.48392,0 -0.5126,0.16894 -0.5126,3.02053 v 3.02052 l 2.11146,1.92105 c 1.1613,1.05659 2.18517,1.92106 2.27526,1.92106 0.0901,0 0.29562,-0.15703 0.45671,-0.34895 z m -4.93185,-2.90204 c -0.26726,-0.292 -0.42417,-0.90132 -0.42417,-1.64719 0,-1.28833 -0.35881,-1.54132 -0.8069,-0.56892 -0.39814,0.86401 -0.0791,1.84014 0.74609,2.28287 0.92341,0.4954 0.991,0.4861 0.48498,-0.0668 z m 2.65137,-1.32713 c 0,-0.6451 -0.44421,-1.50383 -0.77791,-1.50383 -0.32679,0 -0.31599,0.92001 0.018,1.53714 0.34859,0.64402 0.75987,0.62598 0.75987,-0.0333 z m -11.63439,1.14753 c -0.78212,-0.77333 -0.34361,-1.89112 0.74188,-1.89112 0.93561,0 1.46101,0.9202 0.95718,1.6764 -0.35067,0.52631 -1.26683,0.64209 -1.69906,0.21472 z m 1.19409,-0.52211 c 0.24459,-0.24183 -0.0896,-0.86217 -0.46451,-0.86217 -0.42933,0 -0.70944,0.42564 -0.5003,0.76024 0.17506,0.28005 0.72582,0.33824 0.96481,0.10193 z m 7.67232,-7.50164 c -0.42155,-0.4168 -0.38665,-1.34283 0.0646,-1.7131 0.49923,-0.40968 1.156,-0.25099 1.58013,0.38176 0.66279,0.9888 -0.79649,2.17004 -1.64471,1.33134 z m 1.18142,-0.89962 c -0.0475,-0.24391 -0.25622,-0.44347 -0.46379,-0.44347 -0.20759,0 -0.4163,0.19956 -0.4638,0.44347 -0.0606,0.31116 0.0778,0.44348 0.4638,0.44348 0.38601,0 0.5244,-0.13232 0.46379,-0.44348 z m 5.81839,18.4629 c 1.41325,-0.80154 3.44321,-2.74849 4.27531,-4.10049 2.04005,-3.31468 1.99328,-8.50297 -0.10622,-11.78262 -0.36314,-0.56726 -1.21974,-1.58491 -1.90357,-2.26147 l -1.24332,-1.23008 -0.12814,5.93597 c -0.11557,5.3529 -0.17891,6.02309 -0.64491,6.82291 -0.55572,0.95384 -2.81803,2.28073 -3.88854,2.28073 -0.57936,0 -0.55886,0.0754 0.68903,2.53415 0.70738,1.39378 1.37159,2.53307 1.47603,2.53177 0.10444,-9.6e-4 0.76788,-0.3302 1.47433,-0.73087 z m 1.6674,-9.77815 c -0.54667,-0.65128 0.0673,-1.70807 0.93296,-1.60576 0.87137,0.10297 1.34439,0.79964 0.95762,1.4104 -0.37089,0.5857 -1.46782,0.69905 -1.89058,0.19536 z m 1.46931,-0.57535 c 0.15143,-0.44969 -0.71021,-0.71843 -0.97014,-0.30257 -0.11743,0.18788 -0.15271,0.43887 -0.0784,0.55778 0.18968,0.30348 0.92026,0.12565 1.04851,-0.25521 z m -8.9551,8.86937 c -0.0475,-0.24391 -0.25622,-0.44347 -0.46379,-0.44347 -0.20759,0 -0.4163,0.19956 -0.4638,0.44347 -0.0606,0.31116 0.0778,0.44348 0.4638,0.44348 0.38601,0 0.5244,-0.13232 0.46379,-0.44348 z m -1.79967,-1.71055 -0.56033,-1.14037 h -4.30594 c -2.36825,0 -4.30593,0.088 -4.30593,0.19569 0,0.10762 0.3544,0.62078 0.78754,1.14036 l 0.78755,0.94468 h 4.07872 4.07872 z m -6.83754,5.57511 -1.87064,-1.14036 h -6.97634 -6.97634 l -0.43191,0.89555 c -0.237552,0.49256 -0.431911,1.00572 -0.431911,1.14036 0,0.15298 3.481064,0.24482 9.278881,0.24482 h 9.27889 z m -4.8976,-4.57155 c 0,-0.0753 -0.23301,-0.58841 -0.5178,-1.14036 l -0.51779,-1.00357 h -3.53185 -3.531838 l -0.56033,1.14037 -0.560329,1.14036 H 100.405 c 2.53548,0 4.60996,-0.0616 4.60996,-0.1368 z m 11.08474,-22.25625 c 0.24668,-0.11827 0.44851,-0.48794 0.44851,-0.82147 0,-0.58909 -0.0586,-0.60642 -2.05036,-0.60642 h -2.05036 v -1.52049 -1.52048 h 3.84442 3.84442 v -5.39203 c 0,-4.47597 -0.0679,-5.48795 -0.4,-5.95668 -0.7834,-1.1059 -1.6487,-1.32201 -5.29312,-1.32201 -3.29248,0 -3.42079,-0.0199 -3.66492,-0.57018 -0.24671,-0.55602 -0.3517,-0.57018 -4.22556,-0.57018 -3.87387,0 -3.97885,0.0142 -4.22556,0.57018 -0.24414,0.55022 -0.37245,0.57018 -3.664925,0.57018 -2.525752,0 -3.60428,0.0984 -4.152524,0.37868 -1.536326,0.78553 -1.540597,0.81023 -1.540597,8.90923 0,6.48602 0.05137,7.45202 0.415384,7.81195 0.372532,0.36834 1.542495,0.40267 11.341022,0.33274 6.00911,-0.0429 11.12747,-0.17474 11.37417,-0.29302 z m 4.03663,-0.79435 c 0,-0.34845 -0.11533,-0.63354 -0.2563,-0.63354 -0.14096,0 -0.25629,0.28509 -0.25629,0.63354 0,0.34844 0.11533,0.63353 0.25629,0.63353 0.14097,0 0.2563,-0.28509 0.2563,-0.63353 z"
           style="fill:#000000;stroke-width:0.25485027" />
        <path
           transform="matrix(0.96867168,0,0,0.95778646,1.8381592,8.1980947)"
           inkscape:connector-curvature="0"
           id="path7337"
           d="m 89.029701,165.48239 c 2.776719,-5.46786 5.048579,-9.97899 5.048579,-10.02472 0,-0.0457 -0.446484,-0.1648 -0.992187,-0.2646 -1.649778,-0.3017 -3.128352,-1.32946 -3.744899,-2.60307 -0.545564,-1.12699 -0.55458,-1.42442 -0.55458,-18.29544 0,-12.37934 0.08655,-17.43872 0.311154,-18.18838 0.482377,-1.61002 2.102617,-3.26363 3.831646,-3.91054 1.444018,-0.54028 1.822985,-0.55186 15.667986,-0.47882 13.99652,0.0738 14.20271,0.0826 15.26455,0.651 1.43172,0.76635 2.92355,2.45637 3.27016,3.7046 0.17369,0.62548 0.28128,4.61949 0.28219,10.47544 l 0.002,9.46453 0.66808,0.30439 c 0.595,0.2711 0.76279,0.2126 1.53395,-0.53484 0.91444,-0.88631 2.17106,-1.12281 2.77214,-0.52173 0.55607,0.55607 0.36773,1.85007 -0.38339,2.63406 l -0.70088,0.73157 0.76703,0.95111 c 2.6401,3.27372 3.67003,6.09522 3.66862,10.05013 -8e-4,2.08036 -0.13318,3.03183 -0.61963,4.45185 -1.25242,3.65601 -4.28203,7.15443 -7.62822,8.8086 l -1.3775,0.68097 2.89886,5.79314 c 1.59426,3.18622 2.89875,5.8537 2.89875,5.92773 0,0.074 -0.86817,0.13459 -1.92926,0.13459 h -1.92926 l -0.7137,-1.45521 -0.7137,-1.45521 H 108.1012 89.574614 l -0.713701,1.45521 -0.713701,1.45521 h -2.083045 -2.083045 z m -0.58197,7.95719 0.713701,-1.4552 h 18.865468 18.86546 l 0.7137,1.4552 0.71371,1.45521 h 1.40009 c 0.77004,0 1.40009,-0.0588 1.40009,-0.13062 0,-0.0718 -1.21982,-2.5737 -2.71069,-5.55967 -2.06782,-4.14148 -2.80512,-5.3915 -3.10886,-5.27072 -0.98478,0.3916 -3.96871,0.89766 -5.29295,0.89766 -0.80037,0 -2.2886,-0.17653 -3.3072,-0.39228 -1.46107,-0.30948 -4.09983,-0.39229 -12.50156,-0.39229 -6.762477,0 -10.649576,-0.0944 -10.649576,-0.25872 0,-0.14229 0.322459,-0.9162 0.716576,-1.71979 l 0.716575,-1.46107 h 6.956345 c 3.82598,0 6.95303,-0.0893 6.94899,-0.19844 -0.004,-0.10914 -0.36123,-0.5457 -0.79375,-0.97014 -0.43252,-0.42443 -0.7864,-0.87091 -0.7864,-0.99218 0,-0.12127 -2.49526,-0.22049 -5.54502,-0.22049 h -5.545013 l 0.781673,-1.65364 0.781669,-1.65365 3.676981,-0.0732 3.67698,-0.0732 -0.39869,-1.24968 c -0.64475,-2.02093 -0.58532,-6.16697 0.12068,-8.4179 1.14845,-3.66164 3.92159,-7.01904 7.47782,-9.0533 l 1.45521,-0.83243 -9.42317,-0.006 c -9.12796,-0.006 -9.445018,-0.023 -10.120317,-0.55421 l -0.697139,-0.54837 9.89e-4,-7.85215 c 9.09e-4,-7.21575 0.04127,-7.9182 0.49793,-8.66708 0.833641,-1.36707 1.925906,-1.69861 5.596144,-1.69861 3.112903,0 3.260463,-0.0254 3.849983,-0.66146 0.60172,-0.64927 0.68661,-0.66146 4.60704,-0.66146 3.92042,0 4.00531,0.0122 4.60703,0.66146 0.58953,0.63611 0.73708,0.66146 3.84999,0.66146 3.59342,0 4.65109,0.30277 5.5711,1.59481 0.48333,0.67878 0.52396,1.17888 0.52396,6.44968 v 5.71384 h 1.5875 1.5875 v 1.5875 1.5875 h -1.56993 c -1.51596,0 -1.5728,0.025 -1.65364,0.7276 -0.0786,0.683 0.0136,0.75424 1.50378,1.16189 0.87312,0.23886 1.85539,0.52064 2.18281,0.62618 l 0.59531,0.19188 v -9.37612 -9.37613 l -0.7276,-1.43521 c -0.54632,-1.07764 -1.05196,-1.63331 -2.02943,-2.23026 l -1.30182,-0.79504 -13.77943,-0.0807 c -7.57868,-0.0444 -14.273291,-0.009 -14.876905,0.0783 -1.698425,0.24614 -3.394129,1.51849 -4.189001,3.14315 l -0.677757,1.38528 0.0717,17.58075 0.0717,17.58075 0.635283,0.89073 c 0.750245,1.05192 2.40787,1.87345 3.796488,1.88159 0.545703,0.003 0.992187,0.066 0.992187,0.13949 0,0.0735 -2.202656,4.53775 -4.894791,9.92048 -2.692135,5.38274 -4.894792,9.84696 -4.894792,9.92049 0,0.0735 0.596606,0.13368 1.325792,0.13368 h 1.325791 z m 2.771684,-5.4901 0.87449,-1.65365 h 16.007295 16.00729 l 0.87449,1.65365 0.87449,1.65365 H 108.1012 90.344924 Z m 33.550535,1.11394 c 0,-0.15132 -0.24055,-0.74663 -0.53455,-1.32292 l -0.53454,-1.04779 H 108.1012 92.501535 l -0.534544,1.04779 c -0.293999,0.57629 -0.534544,1.1716 -0.534544,1.32292 0,0.18753 5.306899,0.27512 16.668753,0.27512 11.36185,0 16.66875,-0.0876 16.66875,-0.27512 z M 95.193759,150.78121 c -1.653897,-0.47182 -2.107732,-2.70454 -0.797802,-3.92493 1.389498,-1.29451 4.444823,-0.25619 4.444823,1.51053 0,0.93745 -0.710136,2.12644 -1.38616,2.32085 -1.145709,0.32949 -1.397322,0.3399 -2.260861,0.0935 z m 2.053909,-0.62206 c 2.190044,-1.13252 0.626777,-4.08278 -1.74806,-3.29901 -1.633332,0.53905 -1.88621,2.48641 -0.425778,3.27883 0.923391,0.50103 1.238335,0.50395 2.173838,0.0202 z m 25.460062,13.77029 c 7.23083,-1.28939 12.49026,-7.31555 12.48261,-14.30236 -0.004,-3.72614 -1.02994,-6.56549 -3.42183,-9.4709 l -1.26045,-1.53106 0.8575,-0.88472 c 1.78703,-1.84374 0.29319,-3.16041 -1.54699,-1.36352 l -0.97306,0.95017 -1.83935,-0.90473 c -1.01164,-0.49761 -2.61325,-1.04916 -3.55913,-1.22567 -0.94589,-0.17652 -1.86862,-0.36166 -2.05052,-0.41143 -0.20261,-0.0554 -0.33073,-0.55492 -0.33073,-1.28942 v -1.19893 h 2.13264 2.13264 l -0.0821,-0.99218 -0.0821,-0.99219 -5.09323,-0.0719 -5.09323,-0.0719 v 1.06405 1.06404 h 1.98438 1.98437 v 1.17864 c 0,1.15609 -0.019,1.18181 -0.99218,1.34455 -5.77415,0.96558 -10.42859,4.67651 -12.27948,9.79029 -0.71471,1.97466 -0.95519,5.93373 -0.48791,8.03271 1.05874,4.7557 5.40993,9.42623 10.0492,10.78671 2.98592,0.87562 4.71278,0.99115 7.46899,0.49967 z m -6.06987,-2.14253 c -2.16642,-0.58344 -3.87052,-1.56953 -5.74882,-3.32658 -5.96063,-5.57588 -5.08735,-14.7811 1.85541,-19.55785 3.40662,-2.34382 8.74311,-2.76664 12.71929,-1.0078 5.15926,2.28219 8.40864,8.11433 7.50517,13.47065 -0.85152,5.04844 -4.79766,9.24031 -9.81109,10.42206 -2.09121,0.49293 -4.68855,0.49274 -6.51996,-5.3e-4 z m 4.42792,-0.38587 c 0,-0.15754 -0.88312,-0.25192 -2.18281,-0.23328 -1.56919,0.0225 -1.95968,0.0881 -1.38907,0.23328 1.18971,0.30273 3.57188,0.30273 3.57188,0 z m 2.94703,-0.41951 c 0.12066,-0.0746 -0.43353,-1.43745 -1.23153,-3.02863 -0.79801,-1.59117 -1.45092,-2.95456 -1.45092,-3.02974 0,-0.0752 0.44649,-0.13932 0.99219,-0.14251 1.38862,-0.008 3.04624,-0.82967 3.79649,-1.88159 0.62233,-0.87257 0.63689,-1.02065 0.71431,-7.26496 l 0.079,-6.37423 -1.6346,-0.73357 c -6.21257,-2.78804 -13.57138,-0.1993 -16.54674,5.82093 -0.82369,1.66663 -0.97807,2.27448 -1.09398,4.30746 -0.11055,1.9388 -0.0315,2.70755 0.43679,4.24939 l 0.57176,1.88238 h 4.89061 4.89061 l 0.57845,1.19062 c 0.35703,0.73487 0.75509,1.19063 1.0399,1.19063 0.25379,0 0.64521,0.26237 0.86982,0.58304 0.34827,0.49723 0.35546,0.66273 0.0489,1.12448 -0.48796,0.73491 -1.5463,0.70457 -1.87905,-0.0539 -0.25265,-0.57587 -0.38008,-0.59531 -3.9026,-0.59531 -2.00279,0 -3.64143,0.0621 -3.64143,0.13806 0,0.0759 0.73283,0.61172 1.62852,1.19063 l 1.62852,1.05256 h 3.27457 c 2.76128,0 3.30011,0.0665 3.43747,0.42447 0.12827,0.33429 0.38816,0.38845 1.22323,0.25492 0.58318,-0.0933 1.15906,-0.23057 1.27972,-0.30515 z m -1.95046,-8.28516 c -1.13181,-1.05874 -2.03206,-1.65877 -2.7983,-1.8651 -0.8795,-0.23683 -1.22314,-0.5002 -1.55174,-1.18929 -0.49144,-1.03056 -0.3201,-2.06869 0.4503,-2.72833 0.43076,-0.36882 0.52192,-0.78321 0.52192,-2.37245 v -1.92558 h 1.32292 1.32291 v 1.93826 c 0,1.74457 0.0686,2.00235 0.68592,2.57969 0.56215,0.52568 0.66289,0.81522 0.55825,1.60453 -0.11801,0.89014 -0.01,1.0797 1.4277,2.50224 l 1.55537,1.53915 -0.70791,0.7389 c -0.38935,0.4064 -0.80034,0.7389 -0.91331,0.7389 -0.11298,0 -0.95629,-0.70241 -1.87403,-1.56092 z m 2.416,0.40285 c 0.24121,-0.29064 -0.12684,-0.76809 -1.81969,-2.3606 l -2.12205,-1.99627 v -2.79878 c 0,-2.62239 -0.0333,-2.79878 -0.52916,-2.79878 -0.49957,0 -0.52917,0.17639 -0.52917,3.15366 v 3.15365 l 2.17974,2.00572 c 1.19886,1.10315 2.25584,2.00572 2.34885,2.00572 0.093,0 0.30518,-0.16395 0.47148,-0.36432 z m -5.09135,-3.02995 c -0.27591,-0.30487 -0.43789,-0.94104 -0.43789,-1.71979 0,-1.34511 -0.37042,-1.60925 -0.833,-0.59399 -0.41102,0.90209 -0.0817,1.92124 0.77022,2.38348 0.95328,0.51724 1.02305,0.50753 0.50067,-0.0697 z m 2.73711,-1.38562 c 0,-0.67353 -0.45857,-1.57011 -0.80306,-1.57011 -0.33736,0 -0.32621,0.96056 0.0186,1.60489 0.35986,0.6724 0.78444,0.65357 0.78444,-0.0348 z m -12.01066,1.1981 c -0.80741,-0.80741 -0.35472,-1.97446 0.76587,-1.97446 0.96587,0 1.50827,0.96075 0.98814,1.75028 -0.36201,0.54951 -1.3078,0.67039 -1.75401,0.22418 z m 1.23271,-0.54512 c 0.2525,-0.25249 -0.0925,-0.90017 -0.47953,-0.90017 -0.44322,0 -0.73239,0.4444 -0.51648,0.79375 0.18072,0.29239 0.74929,0.35315 0.99601,0.10642 z m 7.92045,-7.83226 c -0.43518,-0.43518 -0.39915,-1.40202 0.0667,-1.78861 0.51538,-0.42773 1.19339,-0.26205 1.63124,0.39859 0.68422,1.03238 -0.82225,2.26568 -1.69791,1.39002 z m 1.21963,-0.93927 c -0.049,-0.25466 -0.2645,-0.46302 -0.47879,-0.46302 -0.2143,0 -0.42976,0.20836 -0.4788,0.46302 -0.0626,0.32487 0.0803,0.46302 0.4788,0.46302 0.3985,0 0.54136,-0.13815 0.47879,-0.46302 z m 6.00657,19.27663 c 1.45896,-0.83687 3.55457,-2.86963 4.41358,-4.28121 2.10603,-3.46078 2.05774,-8.87774 -0.10966,-12.30193 -0.37488,-0.59226 -1.25919,-1.65477 -1.96513,-2.36114 l -1.28353,-1.2843 -0.13229,6.19759 c -0.1193,5.58883 -0.18469,6.28855 -0.66576,7.12363 -0.5737,0.99588 -2.90917,2.38125 -4.0143,2.38125 -0.5981,0 -0.57694,0.0787 0.71131,2.64584 0.73026,1.45521 1.41595,2.64471 1.52377,2.64335 0.10781,-10e-4 0.79271,-0.34475 1.52201,-0.76308 z m 1.72132,-10.20911 c -0.56435,-0.67999 0.0695,-1.78335 0.96314,-1.67654 0.89955,0.10751 1.38787,0.83489 0.98859,1.47257 -0.38289,0.61151 -1.51529,0.72986 -1.95173,0.20397 z m 1.51683,-0.60071 c 0.15633,-0.46951 -0.73317,-0.75009 -1.00151,-0.31591 -0.12123,0.19616 -0.15765,0.45822 -0.0809,0.58237 0.19582,0.31685 0.95003,0.13119 1.08243,-0.26646 z m -9.24472,9.26028 c -0.049,-0.25466 -0.2645,-0.46302 -0.47879,-0.46302 -0.2143,0 -0.42976,0.20836 -0.4788,0.46302 -0.0626,0.32487 0.0803,0.46302 0.4788,0.46302 0.3985,0 0.54136,-0.13815 0.47879,-0.46302 z m -1.85787,-1.78594 -0.57845,-1.19063 h -4.4452 c -2.44485,0 -4.44519,0.0919 -4.44519,0.20431 0,0.11236 0.36586,0.64814 0.81301,1.19062 l 0.81302,0.98632 h 4.21063 4.21063 z m -7.05868,5.82083 -1.93114,-1.19062 h -7.20196 -7.201968 l -0.445879,0.93502 c -0.245234,0.51426 -0.445879,1.05004 -0.445879,1.19062 0,0.15972 3.593647,0.25561 9.578976,0.25561 h 9.57898 z m -5.05599,-4.77304 c 0,-0.0786 -0.24055,-0.61434 -0.53455,-1.19062 l -0.53454,-1.0478 h -3.64607 -3.646065 l -0.578451,1.19063 -0.578451,1.19062 h 4.759067 c 2.61748,0 4.75906,-0.0643 4.75906,-0.14283 z m 11.44323,-23.23717 c 0.25466,-0.12349 0.46302,-0.50945 0.46302,-0.85768 0,-0.61505 -0.0605,-0.63315 -2.11667,-0.63315 h -2.11667 v -1.5875 -1.5875 h 3.96875 3.96875 v -5.62967 c 0,-4.67325 -0.0701,-5.72983 -0.41293,-6.21922 -0.80874,-1.15464 -1.70202,-1.38028 -5.46431,-1.38028 -3.39896,0 -3.53142,-0.0208 -3.78345,-0.59531 -0.25469,-0.58052 -0.36307,-0.59531 -4.36222,-0.59531 -3.99916,0 -4.10753,0.0148 -4.36222,0.59531 -0.25204,0.57447 -0.3845,0.59531 -3.783455,0.59531 -2.607439,0 -3.720848,0.10269 -4.286823,0.39537 -1.586013,0.82016 -1.590422,0.84594 -1.590422,9.3019 0,6.77189 0.05303,7.78046 0.428818,8.15625 0.38458,0.38458 1.592382,0.42042 11.707812,0.34741 6.20345,-0.0448 11.48735,-0.18244 11.74202,-0.30593 z m 4.16718,-0.82937 c 0,-0.3638 -0.11906,-0.66146 -0.26458,-0.66146 -0.14552,0 -0.26458,0.29766 -0.26458,0.66146 0,0.3638 0.11906,0.66146 0.26458,0.66146 0.14552,0 0.26458,-0.29766 0.26458,-0.66146 z"
           style="fill:url(#linearGradient7347);fill-opacity:1;stroke-width:0.26458332;filter:url(#filter6607)" />
        <path
           inkscape:connector-curvature="0"
           id="path7339"
           d="m 114.21834,164.7996 c -3.95118,-1.12459 -7.46469,-4.07748 -9.35632,-7.86341 l -0.99954,-2.0005 v -3.5963 c 0,-3.53415 0.0147,-3.62699 0.85044,-5.37202 2.11374,-4.41351 5.51289,-7.09485 10.54101,-8.31505 l 1.81227,-0.43979 0.0789,-1.1984 0.0789,-1.1984 h -1.95591 -1.95591 v -0.89595 -0.89596 h 4.75939 c 4.71681,0 4.76079,0.005 4.9155,0.57597 0.31972,1.17963 0.26273,1.21594 -1.90799,1.21594 h -2.07118 v 1.14294 c 0,1.31949 0.14121,1.42942 2.45952,1.91489 0.85436,0.17891 2.37767,0.69923 3.38514,1.15628 l 1.83176,0.83099 0.94757,-0.85863 c 1.77845,-1.61152 2.8573,-0.61505 1.18316,1.09281 l -0.80761,0.82388 1.23516,1.49219 c 4.76045,5.75106 4.48839,13.3581 -0.66244,18.52228 -1.86835,1.87318 -4.38081,3.27297 -7.10241,3.95702 -2.0132,0.50599 -5.30745,0.4648 -7.25943,-0.0908 z m 8.02579,-1.87613 c 5.67799,-1.83112 9.42754,-7.72576 8.46064,-13.30091 -0.84241,-4.8574 -4.48787,-8.85774 -9.20326,-10.09919 -0.7307,-0.19238 -2.16747,-0.35115 -3.19281,-0.35282 -3.94078,-0.006 -6.59251,1.02463 -9.15936,3.56134 -3.8723,3.82685 -4.88444,9.09647 -2.65074,13.80092 0.97616,2.0559 3.86096,4.84904 6.09053,5.89699 2.90046,1.36329 6.40312,1.54239 9.655,0.49367 z"
           style="opacity:0.92900002;fill:#ffcc00;fill-opacity:0.60386472;stroke:#fff6d5;stroke-width:3.85512924;stroke-linejoin:round;stroke-miterlimit:4;stroke-dasharray:none;stroke-opacity:0.5024155" />
        <path
           inkscape:connector-curvature="0"
           id="path7341"
           d="m 115.38338,165.00796 c -4.00527,-0.67623 -8.23159,-3.89977 -10.31404,-7.86681 l -1.11358,-2.12136 0.0828,-3.89434 c 0.0822,-3.86742 0.0891,-3.90673 0.98895,-5.68612 1.09894,-2.17304 3.88867,-5.05031 5.95461,-6.14149 0.78317,-0.41364 2.47247,-1.05083 3.754,-1.41598 l 2.33007,-0.6639 0.0789,-1.20111 0.0789,-1.20112 h -1.95591 -1.95591 v -0.89595 -0.89596 h 4.5122 c 3.7568,0 4.5803,0.0674 4.91903,0.40227 0.98889,0.97778 0.37425,1.38964 -2.07385,1.38964 h -1.66166 v 1.13684 c 0,0.62526 0.10707,1.20226 0.23792,1.28222 0.13086,0.08 1.20851,0.42476 2.39479,0.76622 1.18629,0.34145 2.79078,0.89883 3.56555,1.23862 l 1.40867,0.6178 1.1354,-0.85693 c 1.27143,-0.9596 1.56097,-1.03425 1.78386,-0.45994 0.0914,0.23538 -0.18104,0.80931 -0.66907,1.40978 l -0.82314,1.01277 1.14267,1.47008 c 2.27932,2.93243 3.28597,5.65474 3.28597,8.88639 0,3.76621 -1.07959,6.48127 -3.66321,9.21258 -3.3578,3.54976 -8.58538,5.29273 -13.42395,4.4758 z m 6.08406,-1.82168 c 4.54116,-1.13739 8.45624,-5.38958 9.26601,-10.06387 0.85757,-4.95018 -2.24114,-10.51793 -7.13181,-12.8144 -3.40112,-1.59703 -8.00016,-1.52009 -11.42876,0.19122 -1.86089,0.92882 -4.17673,3.14971 -5.28898,5.07214 -2.30932,3.99147 -1.97718,9.23314 0.80994,12.78218 3.46645,4.41406 8.45574,6.16465 13.7736,4.83273 z"
           style="opacity:1;fill:#ffcc00;fill-opacity:0.60386472;stroke:#fff6d5;stroke-width:3.85512924;stroke-linejoin:round;stroke-miterlimit:4;stroke-dasharray:none;stroke-opacity:0.5024155" />
        <path
           inkscape:connector-curvature="0"
           id="path7343"
           d="m 119.8109,153.17753 -2.11161,-1.85063 0.0718,-2.88081 c 0.0931,-3.73655 0.56433,-3.94502 0.66269,-0.29318 l 0.0731,2.71371 1.67415,1.46235 c 0.92078,0.80428 1.79111,1.67842 1.93406,1.94251 0.58343,1.07791 -0.31003,0.65372 -2.30418,-1.09395 z"
           style="opacity:1;fill:#ffffff;fill-opacity:0.60386472;stroke:#fff6d5;stroke-width:3.85512924;stroke-linejoin:round;stroke-miterlimit:4;stroke-dasharray:none;stroke-opacity:0.5024155" />
      </g>
    </clipPath>
    <linearGradient
       inkscape:collect="always"
       id="linearGradient6615">
      <stop
         style="stop-color:#d7f4ee;stop-opacity:1;"
         offset="0"
         id="stop6611" />
      <stop
         style="stop-color:#d7f423;stop-opacity:0"
         offset="1"
         id="stop6613" />
    </linearGradient>
    <filter
       inkscape:collect="always"
       style="color-interpolation-filters:sRGB"
       id="filter6607"
       x="-0.41638279"
       width="1.8327656"
       y="-0.3381325"
       height="1.676265">
      <feGaussianBlur
         inkscape:collect="always"
         stdDeviation="8.9801155"
         id="feGaussianBlur6609" />
    </filter>
    <clipPath
       clipPathUnits="userSpaceOnUse"
       id="clipPath6706">
      <g
         inkscape:label="Clip"
         id="use6704">
        <path
           inkscape:connector-curvature="0"
           id="path7349"
           d="m 88.078709,166.69489 c 2.689729,-5.23704 4.890415,-9.55774 4.890415,-9.60154 0,-0.0438 -0.432496,-0.15785 -0.961103,-0.25343 -1.598093,-0.28897 -3.030346,-1.27334 -3.627578,-2.49319 -0.528472,-1.07941 -0.537206,-1.36429 -0.537206,-17.52312 0,-11.85677 0.08384,-16.70257 0.301406,-17.42059 0.467265,-1.54205 2.036746,-3.12586 3.711607,-3.74546 1.39878,-0.51747 1.765874,-0.52856 15.17713,-0.45861 13.55804,0.0707 13.75777,0.0791 14.78634,0.62352 1.38687,0.734 2.83196,2.35268 3.16771,3.54822 0.16825,0.59907 0.27247,4.42448 0.27335,10.03323 l 0.002,9.065 0.64715,0.29154 c 0.57636,0.25966 0.73889,0.20363 1.48589,-0.51226 0.8858,-0.8489 2.10305,-1.07541 2.6853,-0.49971 0.53865,0.5326 0.35621,1.77197 -0.37138,2.52287 l -0.67892,0.70069 0.743,0.91096 c 2.55739,3.13552 3.55505,5.83792 3.55368,9.62588 -7.7e-4,1.99254 -0.129,2.90384 -0.60021,4.26392 -1.21319,3.50167 -4.14788,6.85241 -7.38924,8.43676 l -1.33435,0.65222 2.80804,5.54859 c 1.54432,3.05172 2.80794,5.6066 2.80794,5.6775 0,0.0709 -0.84097,0.12891 -1.86882,0.12891 h -1.86882 l -0.69134,-1.39378 -0.69134,-1.39378 H 106.55273 88.606551 l -0.691342,1.39378 -0.691342,1.39378 H 85.20608 83.188293 Z m -0.563738,7.62129 0.691342,-1.39377 h 18.274447 18.27443 l 0.69135,1.39377 0.69135,1.39378 h 1.35622 c 0.74592,0 1.35623,-0.0563 1.35623,-0.12511 0,-0.0688 -1.1816,-2.46505 -2.62577,-5.32498 -2.00304,-3.96665 -2.71724,-5.1639 -3.01146,-5.04822 -0.95393,0.37507 -3.84438,0.85977 -5.12713,0.85977 -0.7753,0 -2.21691,-0.16908 -3.20359,-0.37572 -1.4153,-0.29642 -3.97139,-0.37573 -12.10991,-0.37573 -6.550621,0 -10.315944,-0.0904 -10.315944,-0.2478 0,-0.13629 0.312357,-0.87753 0.694127,-1.64719 l 0.694126,-1.3994 h 6.738411 c 3.70612,0 6.73521,-0.0855 6.73129,-0.19006 -0.004,-0.10453 -0.34991,-0.52266 -0.76888,-0.92919 -0.41897,-0.40651 -0.76176,-0.83414 -0.76176,-0.95029 0,-0.11615 -2.41709,-0.21119 -5.37131,-0.21119 h -5.371294 l 0.757184,-1.58383 0.757181,-1.58384 3.561789,-0.0701 3.56178,-0.0701 -0.3862,-1.19693 c -0.62455,-1.93562 -0.56698,-5.90664 0.1169,-8.06255 1.11248,-3.50707 3.79874,-6.72274 7.24356,-8.67113 l 1.40962,-0.79729 -9.12796,-0.006 c -8.841997,-0.006 -9.149122,-0.022 -9.803265,-0.53081 l -0.675299,-0.52522 9.58e-4,-7.52069 c 8.81e-4,-6.91114 0.03998,-7.58394 0.482331,-8.30121 0.807524,-1.30936 1.86557,-1.6269 5.420826,-1.6269 3.015379,0 3.158319,-0.0243 3.729369,-0.63354 0.58287,-0.62186 0.6651,-0.63354 4.46271,-0.63354 3.7976,0 3.87983,0.0117 4.4627,0.63354 0.57106,0.60926 0.71399,0.63354 3.72938,0.63354 3.48084,0 4.50537,0.28999 5.39656,1.52748 0.46819,0.65013 0.50755,1.12912 0.50755,6.17742 v 5.47264 h 1.53776 1.53777 v 1.52049 1.52048 h -1.52075 c -1.46846,0 -1.52352,0.024 -1.60183,0.69689 -0.0761,0.65416 0.0132,0.7224 1.45667,1.11284 0.84576,0.22878 1.79726,0.49866 2.11442,0.59975 l 0.57666,0.18378 v -8.98032 -8.98034 l -0.7048,-1.37462 c -0.52921,-1.03215 -1.01901,-1.56436 -1.96585,-2.13611 l -1.26104,-0.76148 -13.34774,-0.0773 c -7.34125,-0.0425 -13.826135,-0.009 -14.410839,0.075 -1.645216,0.23575 -3.287796,1.45439 -4.057766,3.01047 l -0.656524,1.3268 0.06945,16.8386 0.06945,16.83861 0.615381,0.85313 c 0.726741,1.00751 2.332435,1.79436 3.67755,1.80216 0.528607,0.003 0.961104,0.0632 0.961104,0.1336 0,0.0704 -2.133651,4.3462 -4.741446,9.5017 -2.607795,5.15552 -4.741446,9.43129 -4.741446,9.50171 0,0.0704 0.577915,0.12804 1.284257,0.12804 h 1.284256 z m 2.684852,-5.25835 0.847093,-1.58384 h 15.505814 15.50581 l 0.84709,1.58384 0.8471,1.58385 h -17.2 -17.200002 z m 32.499457,1.06692 c 0,-0.14493 -0.23302,-0.71511 -0.51781,-1.26708 l -0.51779,-1.00355 H 106.55273 91.441776 l -0.517798,1.00355 c -0.284788,0.55197 -0.517797,1.12215 -0.517797,1.26708 0,0.17961 5.140643,0.26351 16.146549,0.26351 11.0059,0 16.14655,-0.0839 16.14655,-0.26351 z M 94.049657,152.6143 c -1.602083,-0.45191 -2.0417,-2.59038 -0.772808,-3.75925 1.345967,-1.23986 4.305574,-0.24537 4.305574,1.44677 0,0.89787 -0.687889,2.03667 -1.342734,2.22288 -1.109816,0.31558 -1.353546,0.32555 -2.190032,0.0896 z m 1.989564,-0.5958 c 2.121433,-1.08472 0.607141,-3.91044 -1.693297,-3.15975 -1.582162,0.51629 -1.827118,2.38145 -0.412439,3.14042 0.894463,0.47988 1.19954,0.48267 2.105736,0.0193 z m 24.662439,13.18899 c 7.0043,-1.23496 12.09896,-7.00673 12.09155,-13.6986 -0.004,-3.56885 -0.99767,-6.28834 -3.31463,-9.0711 l -1.22096,-1.46643 0.83064,-0.84737 c 1.73104,-1.76591 0.284,-3.027 -1.49853,-1.30597 l -0.94257,0.91006 -1.78173,-0.86653 c -0.97995,-0.47661 -2.53138,-1.00488 -3.44763,-1.17393 -0.91626,-0.16907 -1.81008,-0.3464 -1.98628,-0.39407 -0.19626,-0.0531 -0.32037,-0.53149 -0.32037,-1.23499 v -1.14831 h 2.06583 2.06583 l -0.0795,-0.9503 -0.0795,-0.95031 -4.93367,-0.0689 -4.93366,-0.0689 v 1.01914 1.01912 h 1.92221 1.9222 v 1.12888 c 0,1.10729 -0.0184,1.13193 -0.9611,1.2878 -5.59325,0.92482 -10.10187,4.47909 -11.89478,9.377 -0.69232,1.89131 -0.92527,5.68325 -0.47262,7.69362 1.02557,4.55495 5.24044,9.02832 9.73437,10.33137 2.89238,0.83866 4.56514,0.94931 7.235,0.47858 z m -5.87971,-2.05208 c -2.09855,-0.55881 -3.74926,-1.50328 -5.56872,-3.18616 -5.77389,-5.3405 -4.92797,-14.15713 1.79728,-18.73224 3.2999,-2.24488 8.46921,-2.64985 12.32082,-0.96526 4.99763,2.18585 8.14521,7.7718 7.27005,12.90201 -0.82485,4.83533 -4.64736,8.85024 -9.50373,9.98211 -2.02569,0.47212 -4.54166,0.47194 -6.3157,-5.1e-4 z m 4.2892,-0.36958 c 0,-0.15089 -0.85545,-0.24129 -2.11443,-0.22344 -1.52003,0.0216 -1.89828,0.0844 -1.34555,0.22344 1.15244,0.28995 3.45998,0.28995 3.45998,0 z m 2.85471,-0.40181 c 0.11688,-0.0714 -0.41995,-1.37677 -1.19295,-2.90078 -0.77301,-1.524 -1.40547,-2.82983 -1.40547,-2.90184 0,-0.072 0.4325,-0.13344 0.96111,-0.13649 1.34512,-0.008 2.95081,-0.79465 3.67755,-1.80217 0.60283,-0.83573 0.61694,-0.97756 0.69193,-6.95828 l 0.0765,-6.10515 -1.58339,-0.7026 c -6.01794,-2.67035 -13.14621,-0.19089 -16.02836,5.57521 -0.79789,1.59627 -0.94743,2.17846 -1.05971,4.12562 -0.10709,1.85696 -0.0305,2.59326 0.42311,4.07001 l 0.55385,1.80292 h 4.73739 4.7374 l 0.56032,1.14036 c 0.34585,0.70385 0.73144,1.14037 1.00733,1.14037 0.24583,0 0.62499,0.25129 0.84257,0.55843 0.33736,0.47624 0.34432,0.63475 0.0474,1.07701 -0.47267,0.70389 -1.49785,0.67483 -1.82018,-0.0516 -0.24473,-0.55156 -0.36817,-0.57018 -3.78034,-0.57018 -1.94004,0 -3.52735,0.0595 -3.52735,0.13224 0,0.0727 0.70987,0.58589 1.5775,1.14037 l 1.57751,1.00812 h 3.17198 c 2.67477,0 3.19672,0.0637 3.32978,0.40656 0.12425,0.32017 0.376,0.37205 1.18491,0.24415 0.56491,-0.0894 1.12275,-0.22083 1.23963,-0.29226 z m -1.88936,-7.93541 c -1.09635,-1.01405 -1.9684,-1.58875 -2.71063,-1.78637 -0.85195,-0.22683 -1.18482,-0.47908 -1.50313,-1.13908 -0.47604,-0.98706 -0.31007,-1.98137 0.43619,-2.61316 0.41727,-0.35325 0.50557,-0.75015 0.50557,-2.2723 v -1.8443 h 1.28148 1.28146 v 1.85644 c 0,1.67093 0.0665,1.91783 0.66443,2.4708 0.54454,0.50349 0.64213,0.7808 0.54076,1.53679 -0.11431,0.85257 -0.01,1.03413 1.38298,2.39661 l 1.50664,1.47418 -0.68573,0.70771 c -0.37715,0.38924 -0.77527,0.70771 -0.8847,0.70771 -0.10944,0 -0.92633,-0.67276 -1.81532,-1.49503 z m 2.34031,0.38584 c 0.23365,-0.27837 -0.12287,-0.73566 -1.76268,-2.26095 l -2.05557,-1.912 v -2.68063 c 0,-2.51169 -0.0323,-2.68063 -0.51258,-2.68063 -0.48392,0 -0.5126,0.16894 -0.5126,3.02053 v 3.02052 l 2.11146,1.92105 c 1.1613,1.05659 2.18517,1.92106 2.27526,1.92106 0.0901,0 0.29562,-0.15703 0.45671,-0.34895 z m -4.93185,-2.90204 c -0.26726,-0.292 -0.42417,-0.90132 -0.42417,-1.64719 0,-1.28833 -0.35881,-1.54132 -0.8069,-0.56892 -0.39814,0.86401 -0.0791,1.84014 0.74609,2.28287 0.92341,0.4954 0.991,0.4861 0.48498,-0.0668 z m 2.65137,-1.32713 c 0,-0.6451 -0.44421,-1.50383 -0.77791,-1.50383 -0.32679,0 -0.31599,0.92001 0.018,1.53714 0.34859,0.64402 0.75987,0.62598 0.75987,-0.0333 z m -11.63439,1.14753 c -0.78212,-0.77333 -0.34361,-1.89112 0.74188,-1.89112 0.93561,0 1.46101,0.9202 0.95718,1.6764 -0.35067,0.52631 -1.26683,0.64209 -1.69906,0.21472 z m 1.19409,-0.52211 c 0.24459,-0.24183 -0.0896,-0.86217 -0.46451,-0.86217 -0.42933,0 -0.70944,0.42564 -0.5003,0.76024 0.17506,0.28005 0.72582,0.33824 0.96481,0.10193 z m 7.67232,-7.50164 c -0.42155,-0.4168 -0.38665,-1.34283 0.0646,-1.7131 0.49923,-0.40968 1.156,-0.25099 1.58013,0.38176 0.66279,0.9888 -0.79649,2.17004 -1.64471,1.33134 z m 1.18142,-0.89962 c -0.0475,-0.24391 -0.25622,-0.44347 -0.46379,-0.44347 -0.20759,0 -0.4163,0.19956 -0.4638,0.44347 -0.0606,0.31116 0.0778,0.44348 0.4638,0.44348 0.38601,0 0.5244,-0.13232 0.46379,-0.44348 z m 5.81839,18.4629 c 1.41325,-0.80154 3.44321,-2.74849 4.27531,-4.10049 2.04005,-3.31468 1.99328,-8.50297 -0.10622,-11.78262 -0.36314,-0.56726 -1.21974,-1.58491 -1.90357,-2.26147 l -1.24332,-1.23008 -0.12814,5.93597 c -0.11557,5.3529 -0.17891,6.02309 -0.64491,6.82291 -0.55572,0.95384 -2.81803,2.28073 -3.88854,2.28073 -0.57936,0 -0.55886,0.0754 0.68903,2.53415 0.70738,1.39378 1.37159,2.53307 1.47603,2.53177 0.10444,-9.6e-4 0.76788,-0.3302 1.47433,-0.73087 z m 1.6674,-9.77815 c -0.54667,-0.65128 0.0673,-1.70807 0.93296,-1.60576 0.87137,0.10297 1.34439,0.79964 0.95762,1.4104 -0.37089,0.5857 -1.46782,0.69905 -1.89058,0.19536 z m 1.46931,-0.57535 c 0.15143,-0.44969 -0.71021,-0.71843 -0.97014,-0.30257 -0.11743,0.18788 -0.15271,0.43887 -0.0784,0.55778 0.18968,0.30348 0.92026,0.12565 1.04851,-0.25521 z m -8.9551,8.86937 c -0.0475,-0.24391 -0.25622,-0.44347 -0.46379,-0.44347 -0.20759,0 -0.4163,0.19956 -0.4638,0.44347 -0.0606,0.31116 0.0778,0.44348 0.4638,0.44348 0.38601,0 0.5244,-0.13232 0.46379,-0.44348 z m -1.79967,-1.71055 -0.56033,-1.14037 h -4.30594 c -2.36825,0 -4.30593,0.088 -4.30593,0.19569 0,0.10762 0.3544,0.62078 0.78754,1.14036 l 0.78755,0.94468 h 4.07872 4.07872 z m -6.83754,5.57511 -1.87064,-1.14036 h -6.97634 -6.97634 l -0.43191,0.89555 c -0.237552,0.49256 -0.431911,1.00572 -0.431911,1.14036 0,0.15298 3.481064,0.24482 9.278881,0.24482 h 9.27889 z m -4.8976,-4.57155 c 0,-0.0753 -0.23301,-0.58841 -0.5178,-1.14036 l -0.51779,-1.00357 h -3.53185 -3.531838 l -0.56033,1.14037 -0.560329,1.14036 H 100.405 c 2.53548,0 4.60996,-0.0616 4.60996,-0.1368 z m 11.08474,-22.25625 c 0.24668,-0.11827 0.44851,-0.48794 0.44851,-0.82147 0,-0.58909 -0.0586,-0.60642 -2.05036,-0.60642 h -2.05036 v -1.52049 -1.52048 h 3.84442 3.84442 v -5.39203 c 0,-4.47597 -0.0679,-5.48795 -0.4,-5.95668 -0.7834,-1.1059 -1.6487,-1.32201 -5.29312,-1.32201 -3.29248,0 -3.42079,-0.0199 -3.66492,-0.57018 -0.24671,-0.55602 -0.3517,-0.57018 -4.22556,-0.57018 -3.87387,0 -3.97885,0.0142 -4.22556,0.57018 -0.24414,0.55022 -0.37245,0.57018 -3.664925,0.57018 -2.525752,0 -3.60428,0.0984 -4.152524,0.37868 -1.536326,0.78553 -1.540597,0.81023 -1.540597,8.90923 0,6.48602 0.05137,7.45202 0.415384,7.81195 0.372532,0.36834 1.542495,0.40267 11.341022,0.33274 6.00911,-0.0429 11.12747,-0.17474 11.37417,-0.29302 z m 4.03663,-0.79435 c 0,-0.34845 -0.11533,-0.63354 -0.2563,-0.63354 -0.14096,0 -0.25629,0.28509 -0.25629,0.63354 0,0.34844 0.11533,0.63353 0.25629,0.63353 0.14097,0 0.2563,-0.28509 0.2563,-0.63353 z"
           style="fill:#000000;stroke-width:0.25485027" />
        <path
           transform="matrix(0.96867168,0,0,0.95778646,1.8381592,8.1980947)"
           inkscape:connector-curvature="0"
           id="path7351"
           d="m 89.029701,165.48239 c 2.776719,-5.46786 5.048579,-9.97899 5.048579,-10.02472 0,-0.0457 -0.446484,-0.1648 -0.992187,-0.2646 -1.649778,-0.3017 -3.128352,-1.32946 -3.744899,-2.60307 -0.545564,-1.12699 -0.55458,-1.42442 -0.55458,-18.29544 0,-12.37934 0.08655,-17.43872 0.311154,-18.18838 0.482377,-1.61002 2.102617,-3.26363 3.831646,-3.91054 1.444018,-0.54028 1.822985,-0.55186 15.667986,-0.47882 13.99652,0.0738 14.20271,0.0826 15.26455,0.651 1.43172,0.76635 2.92355,2.45637 3.27016,3.7046 0.17369,0.62548 0.28128,4.61949 0.28219,10.47544 l 0.002,9.46453 0.66808,0.30439 c 0.595,0.2711 0.76279,0.2126 1.53395,-0.53484 0.91444,-0.88631 2.17106,-1.12281 2.77214,-0.52173 0.55607,0.55607 0.36773,1.85007 -0.38339,2.63406 l -0.70088,0.73157 0.76703,0.95111 c 2.6401,3.27372 3.67003,6.09522 3.66862,10.05013 -8e-4,2.08036 -0.13318,3.03183 -0.61963,4.45185 -1.25242,3.65601 -4.28203,7.15443 -7.62822,8.8086 l -1.3775,0.68097 2.89886,5.79314 c 1.59426,3.18622 2.89875,5.8537 2.89875,5.92773 0,0.074 -0.86817,0.13459 -1.92926,0.13459 h -1.92926 l -0.7137,-1.45521 -0.7137,-1.45521 H 108.1012 89.574614 l -0.713701,1.45521 -0.713701,1.45521 h -2.083045 -2.083045 z m -0.58197,7.95719 0.713701,-1.4552 h 18.865468 18.86546 l 0.7137,1.4552 0.71371,1.45521 h 1.40009 c 0.77004,0 1.40009,-0.0588 1.40009,-0.13062 0,-0.0718 -1.21982,-2.5737 -2.71069,-5.55967 -2.06782,-4.14148 -2.80512,-5.3915 -3.10886,-5.27072 -0.98478,0.3916 -3.96871,0.89766 -5.29295,0.89766 -0.80037,0 -2.2886,-0.17653 -3.3072,-0.39228 -1.46107,-0.30948 -4.09983,-0.39229 -12.50156,-0.39229 -6.762477,0 -10.649576,-0.0944 -10.649576,-0.25872 0,-0.14229 0.322459,-0.9162 0.716576,-1.71979 l 0.716575,-1.46107 h 6.956345 c 3.82598,0 6.95303,-0.0893 6.94899,-0.19844 -0.004,-0.10914 -0.36123,-0.5457 -0.79375,-0.97014 -0.43252,-0.42443 -0.7864,-0.87091 -0.7864,-0.99218 0,-0.12127 -2.49526,-0.22049 -5.54502,-0.22049 h -5.545013 l 0.781673,-1.65364 0.781669,-1.65365 3.676981,-0.0732 3.67698,-0.0732 -0.39869,-1.24968 c -0.64475,-2.02093 -0.58532,-6.16697 0.12068,-8.4179 1.14845,-3.66164 3.92159,-7.01904 7.47782,-9.0533 l 1.45521,-0.83243 -9.42317,-0.006 c -9.12796,-0.006 -9.445018,-0.023 -10.120317,-0.55421 l -0.697139,-0.54837 9.89e-4,-7.85215 c 9.09e-4,-7.21575 0.04127,-7.9182 0.49793,-8.66708 0.833641,-1.36707 1.925906,-1.69861 5.596144,-1.69861 3.112903,0 3.260463,-0.0254 3.849983,-0.66146 0.60172,-0.64927 0.68661,-0.66146 4.60704,-0.66146 3.92042,0 4.00531,0.0122 4.60703,0.66146 0.58953,0.63611 0.73708,0.66146 3.84999,0.66146 3.59342,0 4.65109,0.30277 5.5711,1.59481 0.48333,0.67878 0.52396,1.17888 0.52396,6.44968 v 5.71384 h 1.5875 1.5875 v 1.5875 1.5875 h -1.56993 c -1.51596,0 -1.5728,0.025 -1.65364,0.7276 -0.0786,0.683 0.0136,0.75424 1.50378,1.16189 0.87312,0.23886 1.85539,0.52064 2.18281,0.62618 l 0.59531,0.19188 v -9.37612 -9.37613 l -0.7276,-1.43521 c -0.54632,-1.07764 -1.05196,-1.63331 -2.02943,-2.23026 l -1.30182,-0.79504 -13.77943,-0.0807 c -7.57868,-0.0444 -14.273291,-0.009 -14.876905,0.0783 -1.698425,0.24614 -3.394129,1.51849 -4.189001,3.14315 l -0.677757,1.38528 0.0717,17.58075 0.0717,17.58075 0.635283,0.89073 c 0.750245,1.05192 2.40787,1.87345 3.796488,1.88159 0.545703,0.003 0.992187,0.066 0.992187,0.13949 0,0.0735 -2.202656,4.53775 -4.894791,9.92048 -2.692135,5.38274 -4.894792,9.84696 -4.894792,9.92049 0,0.0735 0.596606,0.13368 1.325792,0.13368 h 1.325791 z m 2.771684,-5.4901 0.87449,-1.65365 h 16.007295 16.00729 l 0.87449,1.65365 0.87449,1.65365 H 108.1012 90.344924 Z m 33.550535,1.11394 c 0,-0.15132 -0.24055,-0.74663 -0.53455,-1.32292 l -0.53454,-1.04779 H 108.1012 92.501535 l -0.534544,1.04779 c -0.293999,0.57629 -0.534544,1.1716 -0.534544,1.32292 0,0.18753 5.306899,0.27512 16.668753,0.27512 11.36185,0 16.66875,-0.0876 16.66875,-0.27512 z M 95.193759,150.78121 c -1.653897,-0.47182 -2.107732,-2.70454 -0.797802,-3.92493 1.389498,-1.29451 4.444823,-0.25619 4.444823,1.51053 0,0.93745 -0.710136,2.12644 -1.38616,2.32085 -1.145709,0.32949 -1.397322,0.3399 -2.260861,0.0935 z m 2.053909,-0.62206 c 2.190044,-1.13252 0.626777,-4.08278 -1.74806,-3.29901 -1.633332,0.53905 -1.88621,2.48641 -0.425778,3.27883 0.923391,0.50103 1.238335,0.50395 2.173838,0.0202 z m 25.460062,13.77029 c 7.23083,-1.28939 12.49026,-7.31555 12.48261,-14.30236 -0.004,-3.72614 -1.02994,-6.56549 -3.42183,-9.4709 l -1.26045,-1.53106 0.8575,-0.88472 c 1.78703,-1.84374 0.29319,-3.16041 -1.54699,-1.36352 l -0.97306,0.95017 -1.83935,-0.90473 c -1.01164,-0.49761 -2.61325,-1.04916 -3.55913,-1.22567 -0.94589,-0.17652 -1.86862,-0.36166 -2.05052,-0.41143 -0.20261,-0.0554 -0.33073,-0.55492 -0.33073,-1.28942 v -1.19893 h 2.13264 2.13264 l -0.0821,-0.99218 -0.0821,-0.99219 -5.09323,-0.0719 -5.09323,-0.0719 v 1.06405 1.06404 h 1.98438 1.98437 v 1.17864 c 0,1.15609 -0.019,1.18181 -0.99218,1.34455 -5.77415,0.96558 -10.42859,4.67651 -12.27948,9.79029 -0.71471,1.97466 -0.95519,5.93373 -0.48791,8.03271 1.05874,4.7557 5.40993,9.42623 10.0492,10.78671 2.98592,0.87562 4.71278,0.99115 7.46899,0.49967 z m -6.06987,-2.14253 c -2.16642,-0.58344 -3.87052,-1.56953 -5.74882,-3.32658 -5.96063,-5.57588 -5.08735,-14.7811 1.85541,-19.55785 3.40662,-2.34382 8.74311,-2.76664 12.71929,-1.0078 5.15926,2.28219 8.40864,8.11433 7.50517,13.47065 -0.85152,5.04844 -4.79766,9.24031 -9.81109,10.42206 -2.09121,0.49293 -4.68855,0.49274 -6.51996,-5.3e-4 z m 4.42792,-0.38587 c 0,-0.15754 -0.88312,-0.25192 -2.18281,-0.23328 -1.56919,0.0225 -1.95968,0.0881 -1.38907,0.23328 1.18971,0.30273 3.57188,0.30273 3.57188,0 z m 2.94703,-0.41951 c 0.12066,-0.0746 -0.43353,-1.43745 -1.23153,-3.02863 -0.79801,-1.59117 -1.45092,-2.95456 -1.45092,-3.02974 0,-0.0752 0.44649,-0.13932 0.99219,-0.14251 1.38862,-0.008 3.04624,-0.82967 3.79649,-1.88159 0.62233,-0.87257 0.63689,-1.02065 0.71431,-7.26496 l 0.079,-6.37423 -1.6346,-0.73357 c -6.21257,-2.78804 -13.57138,-0.1993 -16.54674,5.82093 -0.82369,1.66663 -0.97807,2.27448 -1.09398,4.30746 -0.11055,1.9388 -0.0315,2.70755 0.43679,4.24939 l 0.57176,1.88238 h 4.89061 4.89061 l 0.57845,1.19062 c 0.35703,0.73487 0.75509,1.19063 1.0399,1.19063 0.25379,0 0.64521,0.26237 0.86982,0.58304 0.34827,0.49723 0.35546,0.66273 0.0489,1.12448 -0.48796,0.73491 -1.5463,0.70457 -1.87905,-0.0539 -0.25265,-0.57587 -0.38008,-0.59531 -3.9026,-0.59531 -2.00279,0 -3.64143,0.0621 -3.64143,0.13806 0,0.0759 0.73283,0.61172 1.62852,1.19063 l 1.62852,1.05256 h 3.27457 c 2.76128,0 3.30011,0.0665 3.43747,0.42447 0.12827,0.33429 0.38816,0.38845 1.22323,0.25492 0.58318,-0.0933 1.15906,-0.23057 1.27972,-0.30515 z m -1.95046,-8.28516 c -1.13181,-1.05874 -2.03206,-1.65877 -2.7983,-1.8651 -0.8795,-0.23683 -1.22314,-0.5002 -1.55174,-1.18929 -0.49144,-1.03056 -0.3201,-2.06869 0.4503,-2.72833 0.43076,-0.36882 0.52192,-0.78321 0.52192,-2.37245 v -1.92558 h 1.32292 1.32291 v 1.93826 c 0,1.74457 0.0686,2.00235 0.68592,2.57969 0.56215,0.52568 0.66289,0.81522 0.55825,1.60453 -0.11801,0.89014 -0.01,1.0797 1.4277,2.50224 l 1.55537,1.53915 -0.70791,0.7389 c -0.38935,0.4064 -0.80034,0.7389 -0.91331,0.7389 -0.11298,0 -0.95629,-0.70241 -1.87403,-1.56092 z m 2.416,0.40285 c 0.24121,-0.29064 -0.12684,-0.76809 -1.81969,-2.3606 l -2.12205,-1.99627 v -2.79878 c 0,-2.62239 -0.0333,-2.79878 -0.52916,-2.79878 -0.49957,0 -0.52917,0.17639 -0.52917,3.15366 v 3.15365 l 2.17974,2.00572 c 1.19886,1.10315 2.25584,2.00572 2.34885,2.00572 0.093,0 0.30518,-0.16395 0.47148,-0.36432 z m -5.09135,-3.02995 c -0.27591,-0.30487 -0.43789,-0.94104 -0.43789,-1.71979 0,-1.34511 -0.37042,-1.60925 -0.833,-0.59399 -0.41102,0.90209 -0.0817,1.92124 0.77022,2.38348 0.95328,0.51724 1.02305,0.50753 0.50067,-0.0697 z m 2.73711,-1.38562 c 0,-0.67353 -0.45857,-1.57011 -0.80306,-1.57011 -0.33736,0 -0.32621,0.96056 0.0186,1.60489 0.35986,0.6724 0.78444,0.65357 0.78444,-0.0348 z m -12.01066,1.1981 c -0.80741,-0.80741 -0.35472,-1.97446 0.76587,-1.97446 0.96587,0 1.50827,0.96075 0.98814,1.75028 -0.36201,0.54951 -1.3078,0.67039 -1.75401,0.22418 z m 1.23271,-0.54512 c 0.2525,-0.25249 -0.0925,-0.90017 -0.47953,-0.90017 -0.44322,0 -0.73239,0.4444 -0.51648,0.79375 0.18072,0.29239 0.74929,0.35315 0.99601,0.10642 z m 7.92045,-7.83226 c -0.43518,-0.43518 -0.39915,-1.40202 0.0667,-1.78861 0.51538,-0.42773 1.19339,-0.26205 1.63124,0.39859 0.68422,1.03238 -0.82225,2.26568 -1.69791,1.39002 z m 1.21963,-0.93927 c -0.049,-0.25466 -0.2645,-0.46302 -0.47879,-0.46302 -0.2143,0 -0.42976,0.20836 -0.4788,0.46302 -0.0626,0.32487 0.0803,0.46302 0.4788,0.46302 0.3985,0 0.54136,-0.13815 0.47879,-0.46302 z m 6.00657,19.27663 c 1.45896,-0.83687 3.55457,-2.86963 4.41358,-4.28121 2.10603,-3.46078 2.05774,-8.87774 -0.10966,-12.30193 -0.37488,-0.59226 -1.25919,-1.65477 -1.96513,-2.36114 l -1.28353,-1.2843 -0.13229,6.19759 c -0.1193,5.58883 -0.18469,6.28855 -0.66576,7.12363 -0.5737,0.99588 -2.90917,2.38125 -4.0143,2.38125 -0.5981,0 -0.57694,0.0787 0.71131,2.64584 0.73026,1.45521 1.41595,2.64471 1.52377,2.64335 0.10781,-10e-4 0.79271,-0.34475 1.52201,-0.76308 z m 1.72132,-10.20911 c -0.56435,-0.67999 0.0695,-1.78335 0.96314,-1.67654 0.89955,0.10751 1.38787,0.83489 0.98859,1.47257 -0.38289,0.61151 -1.51529,0.72986 -1.95173,0.20397 z m 1.51683,-0.60071 c 0.15633,-0.46951 -0.73317,-0.75009 -1.00151,-0.31591 -0.12123,0.19616 -0.15765,0.45822 -0.0809,0.58237 0.19582,0.31685 0.95003,0.13119 1.08243,-0.26646 z m -9.24472,9.26028 c -0.049,-0.25466 -0.2645,-0.46302 -0.47879,-0.46302 -0.2143,0 -0.42976,0.20836 -0.4788,0.46302 -0.0626,0.32487 0.0803,0.46302 0.4788,0.46302 0.3985,0 0.54136,-0.13815 0.47879,-0.46302 z m -1.85787,-1.78594 -0.57845,-1.19063 h -4.4452 c -2.44485,0 -4.44519,0.0919 -4.44519,0.20431 0,0.11236 0.36586,0.64814 0.81301,1.19062 l 0.81302,0.98632 h 4.21063 4.21063 z m -7.05868,5.82083 -1.93114,-1.19062 h -7.20196 -7.201968 l -0.445879,0.93502 c -0.245234,0.51426 -0.445879,1.05004 -0.445879,1.19062 0,0.15972 3.593647,0.25561 9.578976,0.25561 h 9.57898 z m -5.05599,-4.77304 c 0,-0.0786 -0.24055,-0.61434 -0.53455,-1.19062 l -0.53454,-1.0478 h -3.64607 -3.646065 l -0.578451,1.19063 -0.578451,1.19062 h 4.759067 c 2.61748,0 4.75906,-0.0643 4.75906,-0.14283 z m 11.44323,-23.23717 c 0.25466,-0.12349 0.46302,-0.50945 0.46302,-0.85768 0,-0.61505 -0.0605,-0.63315 -2.11667,-0.63315 h -2.11667 v -1.5875 -1.5875 h 3.96875 3.96875 v -5.62967 c 0,-4.67325 -0.0701,-5.72983 -0.41293,-6.21922 -0.80874,-1.15464 -1.70202,-1.38028 -5.46431,-1.38028 -3.39896,0 -3.53142,-0.0208 -3.78345,-0.59531 -0.25469,-0.58052 -0.36307,-0.59531 -4.36222,-0.59531 -3.99916,0 -4.10753,0.0148 -4.36222,0.59531 -0.25204,0.57447 -0.3845,0.59531 -3.783455,0.59531 -2.607439,0 -3.720848,0.10269 -4.286823,0.39537 -1.586013,0.82016 -1.590422,0.84594 -1.590422,9.3019 0,6.77189 0.05303,7.78046 0.428818,8.15625 0.38458,0.38458 1.592382,0.42042 11.707812,0.34741 6.20345,-0.0448 11.48735,-0.18244 11.74202,-0.30593 z m 4.16718,-0.82937 c 0,-0.3638 -0.11906,-0.66146 -0.26458,-0.66146 -0.14552,0 -0.26458,0.29766 -0.26458,0.66146 0,0.3638 0.11906,0.66146 0.26458,0.66146 0.14552,0 0.26458,-0.29766 0.26458,-0.66146 z"
           style="fill:url(#linearGradient7361);fill-opacity:1;stroke-width:0.26458332;filter:url(#filter6607)" />
        <path
           inkscape:connector-curvature="0"
           id="path7353"
           d="m 114.21834,164.7996 c -3.95118,-1.12459 -7.46469,-4.07748 -9.35632,-7.86341 l -0.99954,-2.0005 v -3.5963 c 0,-3.53415 0.0147,-3.62699 0.85044,-5.37202 2.11374,-4.41351 5.51289,-7.09485 10.54101,-8.31505 l 1.81227,-0.43979 0.0789,-1.1984 0.0789,-1.1984 h -1.95591 -1.95591 v -0.89595 -0.89596 h 4.75939 c 4.71681,0 4.76079,0.005 4.9155,0.57597 0.31972,1.17963 0.26273,1.21594 -1.90799,1.21594 h -2.07118 v 1.14294 c 0,1.31949 0.14121,1.42942 2.45952,1.91489 0.85436,0.17891 2.37767,0.69923 3.38514,1.15628 l 1.83176,0.83099 0.94757,-0.85863 c 1.77845,-1.61152 2.8573,-0.61505 1.18316,1.09281 l -0.80761,0.82388 1.23516,1.49219 c 4.76045,5.75106 4.48839,13.3581 -0.66244,18.52228 -1.86835,1.87318 -4.38081,3.27297 -7.10241,3.95702 -2.0132,0.50599 -5.30745,0.4648 -7.25943,-0.0908 z m 8.02579,-1.87613 c 5.67799,-1.83112 9.42754,-7.72576 8.46064,-13.30091 -0.84241,-4.8574 -4.48787,-8.85774 -9.20326,-10.09919 -0.7307,-0.19238 -2.16747,-0.35115 -3.19281,-0.35282 -3.94078,-0.006 -6.59251,1.02463 -9.15936,3.56134 -3.8723,3.82685 -4.88444,9.09647 -2.65074,13.80092 0.97616,2.0559 3.86096,4.84904 6.09053,5.89699 2.90046,1.36329 6.40312,1.54239 9.655,0.49367 z"
           style="opacity:0.92900002;fill:#ffcc00;fill-opacity:0.60386472;stroke:#fff6d5;stroke-width:3.85512924;stroke-linejoin:round;stroke-miterlimit:4;stroke-dasharray:none;stroke-opacity:0.5024155" />
        <path
           inkscape:connector-curvature="0"
           id="path7355"
           d="m 115.38338,165.00796 c -4.00527,-0.67623 -8.23159,-3.89977 -10.31404,-7.86681 l -1.11358,-2.12136 0.0828,-3.89434 c 0.0822,-3.86742 0.0891,-3.90673 0.98895,-5.68612 1.09894,-2.17304 3.88867,-5.05031 5.95461,-6.14149 0.78317,-0.41364 2.47247,-1.05083 3.754,-1.41598 l 2.33007,-0.6639 0.0789,-1.20111 0.0789,-1.20112 h -1.95591 -1.95591 v -0.89595 -0.89596 h 4.5122 c 3.7568,0 4.5803,0.0674 4.91903,0.40227 0.98889,0.97778 0.37425,1.38964 -2.07385,1.38964 h -1.66166 v 1.13684 c 0,0.62526 0.10707,1.20226 0.23792,1.28222 0.13086,0.08 1.20851,0.42476 2.39479,0.76622 1.18629,0.34145 2.79078,0.89883 3.56555,1.23862 l 1.40867,0.6178 1.1354,-0.85693 c 1.27143,-0.9596 1.56097,-1.03425 1.78386,-0.45994 0.0914,0.23538 -0.18104,0.80931 -0.66907,1.40978 l -0.82314,1.01277 1.14267,1.47008 c 2.27932,2.93243 3.28597,5.65474 3.28597,8.88639 0,3.76621 -1.07959,6.48127 -3.66321,9.21258 -3.3578,3.54976 -8.58538,5.29273 -13.42395,4.4758 z m 6.08406,-1.82168 c 4.54116,-1.13739 8.45624,-5.38958 9.26601,-10.06387 0.85757,-4.95018 -2.24114,-10.51793 -7.13181,-12.8144 -3.40112,-1.59703 -8.00016,-1.52009 -11.42876,0.19122 -1.86089,0.92882 -4.17673,3.14971 -5.28898,5.07214 -2.30932,3.99147 -1.97718,9.23314 0.80994,12.78218 3.46645,4.41406 8.45574,6.16465 13.7736,4.83273 z"
           style="opacity:1;fill:#ffcc00;fill-opacity:0.60386472;stroke:#fff6d5;stroke-width:3.85512924;stroke-linejoin:round;stroke-miterlimit:4;stroke-dasharray:none;stroke-opacity:0.5024155" />
        <path
           inkscape:connector-curvature="0"
           id="path7357"
           d="m 119.8109,153.17753 -2.11161,-1.85063 0.0718,-2.88081 c 0.0931,-3.73655 0.56433,-3.94502 0.66269,-0.29318 l 0.0731,2.71371 1.67415,1.46235 c 0.92078,0.80428 1.79111,1.67842 1.93406,1.94251 0.58343,1.07791 -0.31003,0.65372 -2.30418,-1.09395 z"
           style="opacity:1;fill:#ffffff;fill-opacity:0.60386472;stroke:#fff6d5;stroke-width:3.85512924;stroke-linejoin:round;stroke-miterlimit:4;stroke-dasharray:none;stroke-opacity:0.5024155" />
      </g>
    </clipPath>
    <linearGradient
       inkscape:collect="always"
       xlink:href="#linearGradient6615"
       id="linearGradient7333"
       gradientUnits="userSpaceOnUse"
       x1="82.741325"
       y1="166.53958"
       x2="143.12885"
       y2="123.24191" />
    <linearGradient
       inkscape:collect="always"
       xlink:href="#linearGradient6615"
       id="linearGradient7347"
       gradientUnits="userSpaceOnUse"
       x1="82.741325"
       y1="166.53958"
       x2="143.12885"
       y2="123.24191" />
    <linearGradient
       inkscape:collect="always"
       xlink:href="#linearGradient6615"
       id="linearGradient7361"
       gradientUnits="userSpaceOnUse"
       x1="82.741325"
       y1="166.53958"
       x2="143.12885"
       y2="123.24191" />
  </defs>
  <sodipodi:namedview
     id="base"
     pagecolor="#ffffff"
     bordercolor="#666666"
     borderopacity="1.0"
     inkscape:pageopacity="0.0"
     inkscape:pageshadow="2"
     inkscape:zoom="0.35"
     inkscape:cx="-749.77956"
     inkscape:cy="18.224378"
     inkscape:document-units="mm"
     inkscape:current-layer="layer1"
     showgrid="false"
     fit-margin-top="0"
     fit-margin-left="0"
     fit-margin-right="0"
     fit-margin-bottom="0"
     inkscape:window-width="1009"
     inkscape:window-height="405"
     inkscape:window-x="-10"
     inkscape:window-y="0"
     inkscape:window-maximized="0" />
  <metadata
     id="metadata6724">
    <rdf:RDF>
      <cc:Work
         rdf:about="">
        <dc:format>image/svg+xml</dc:format>
        <dc:type
           rdf:resource="http://purl.org/dc/dcmitype/StillImage" />
        <dc:title></dc:title>
      </cc:Work>
    </rdf:RDF>
  </metadata>
  <g
     inkscape:label="Layer 1"
     inkscape:groupmode="layer"
     id="layer1"
     transform="translate(-84.230365,-92.606705)">
    <g
       transform="matrix(1.0426444,0,0,1,-2.505443,-22.56159)"
       inkscape:label="Clip"
       id="use6657">
      <g
         id="g7329">
        <g
           id="g7327"
           clip-path="url(#clipPath6630)">
          <g
             inkscape:label="Clip"
             id="g7325">
            <path
               inkscape:connector-curvature="0"
               id="path7315"
               d="m 88.078709,166.69489 c 2.689729,-5.23704 4.890415,-9.55774 4.890415,-9.60154 0,-0.0438 -0.432496,-0.15785 -0.961103,-0.25343 -1.598093,-0.28897 -3.030346,-1.27334 -3.627578,-2.49319 -0.528472,-1.07941 -0.537206,-1.36429 -0.537206,-17.52312 0,-11.85677 0.08384,-16.70257 0.301406,-17.42059 0.467265,-1.54205 2.036746,-3.12586 3.711607,-3.74546 1.39878,-0.51747 1.765874,-0.52856 15.17713,-0.45861 13.55804,0.0707 13.75777,0.0791 14.78634,0.62352 1.38687,0.734 2.83196,2.35268 3.16771,3.54822 0.16825,0.59907 0.27247,4.42448 0.27335,10.03323 l 0.002,9.065 0.64715,0.29154 c 0.57636,0.25966 0.73889,0.20363 1.48589,-0.51226 0.8858,-0.8489 2.10305,-1.07541 2.6853,-0.49971 0.53865,0.5326 0.35621,1.77197 -0.37138,2.52287 l -0.67892,0.70069 0.743,0.91096 c 2.55739,3.13552 3.55505,5.83792 3.55368,9.62588 -7.7e-4,1.99254 -0.129,2.90384 -0.60021,4.26392 -1.21319,3.50167 -4.14788,6.85241 -7.38924,8.43676 l -1.33435,0.65222 2.80804,5.54859 c 1.54432,3.05172 2.80794,5.6066 2.80794,5.6775 0,0.0709 -0.84097,0.12891 -1.86882,0.12891 h -1.86882 l -0.69134,-1.39378 -0.69134,-1.39378 H 106.55273 88.606551 l -0.691342,1.39378 -0.691342,1.39378 H 85.20608 83.188293 Z m -0.563738,7.62129 0.691342,-1.39377 h 18.274447 18.27443 l 0.69135,1.39377 0.69135,1.39378 h 1.35622 c 0.74592,0 1.35623,-0.0563 1.35623,-0.12511 0,-0.0688 -1.1816,-2.46505 -2.62577,-5.32498 -2.00304,-3.96665 -2.71724,-5.1639 -3.01146,-5.04822 -0.95393,0.37507 -3.84438,0.85977 -5.12713,0.85977 -0.7753,0 -2.21691,-0.16908 -3.20359,-0.37572 -1.4153,-0.29642 -3.97139,-0.37573 -12.10991,-0.37573 -6.550621,0 -10.315944,-0.0904 -10.315944,-0.2478 0,-0.13629 0.312357,-0.87753 0.694127,-1.64719 l 0.694126,-1.3994 h 6.738411 c 3.70612,0 6.73521,-0.0855 6.73129,-0.19006 -0.004,-0.10453 -0.34991,-0.52266 -0.76888,-0.92919 -0.41897,-0.40651 -0.76176,-0.83414 -0.76176,-0.95029 0,-0.11615 -2.41709,-0.21119 -5.37131,-0.21119 h -5.371294 l 0.757184,-1.58383 0.757181,-1.58384 3.561789,-0.0701 3.56178,-0.0701 -0.3862,-1.19693 c -0.62455,-1.93562 -0.56698,-5.90664 0.1169,-8.06255 1.11248,-3.50707 3.79874,-6.72274 7.24356,-8.67113 l 1.40962,-0.79729 -9.12796,-0.006 c -8.841997,-0.006 -9.149122,-0.022 -9.803265,-0.53081 l -0.675299,-0.52522 9.58e-4,-7.52069 c 8.81e-4,-6.91114 0.03998,-7.58394 0.482331,-8.30121 0.807524,-1.30936 1.86557,-1.6269 5.420826,-1.6269 3.015379,0 3.158319,-0.0243 3.729369,-0.63354 0.58287,-0.62186 0.6651,-0.63354 4.46271,-0.63354 3.7976,0 3.87983,0.0117 4.4627,0.63354 0.57106,0.60926 0.71399,0.63354 3.72938,0.63354 3.48084,0 4.50537,0.28999 5.39656,1.52748 0.46819,0.65013 0.50755,1.12912 0.50755,6.17742 v 5.47264 h 1.53776 1.53777 v 1.52049 1.52048 h -1.52075 c -1.46846,0 -1.52352,0.024 -1.60183,0.69689 -0.0761,0.65416 0.0132,0.7224 1.45667,1.11284 0.84576,0.22878 1.79726,0.49866 2.11442,0.59975 l 0.57666,0.18378 v -8.98032 -8.98034 l -0.7048,-1.37462 c -0.52921,-1.03215 -1.01901,-1.56436 -1.96585,-2.13611 l -1.26104,-0.76148 -13.34774,-0.0773 c -7.34125,-0.0425 -13.826135,-0.009 -14.410839,0.075 -1.645216,0.23575 -3.287796,1.45439 -4.057766,3.01047 l -0.656524,1.3268 0.06945,16.8386 0.06945,16.83861 0.615381,0.85313 c 0.726741,1.00751 2.332435,1.79436 3.67755,1.80216 0.528607,0.003 0.961104,0.0632 0.961104,0.1336 0,0.0704 -2.133651,4.3462 -4.741446,9.5017 -2.607795,5.15552 -4.741446,9.43129 -4.741446,9.50171 0,0.0704 0.577915,0.12804 1.284257,0.12804 h 1.284256 z m 2.684852,-5.25835 0.847093,-1.58384 h 15.505814 15.50581 l 0.84709,1.58384 0.8471,1.58385 h -17.2 -17.200002 z m 32.499457,1.06692 c 0,-0.14493 -0.23302,-0.71511 -0.51781,-1.26708 l -0.51779,-1.00355 H 106.55273 91.441776 l -0.517798,1.00355 c -0.284788,0.55197 -0.517797,1.12215 -0.517797,1.26708 0,0.17961 5.140643,0.26351 16.146549,0.26351 11.0059,0 16.14655,-0.0839 16.14655,-0.26351 z M 94.049657,152.6143 c -1.602083,-0.45191 -2.0417,-2.59038 -0.772808,-3.75925 1.345967,-1.23986 4.305574,-0.24537 4.305574,1.44677 0,0.89787 -0.687889,2.03667 -1.342734,2.22288 -1.109816,0.31558 -1.353546,0.32555 -2.190032,0.0896 z m 1.989564,-0.5958 c 2.121433,-1.08472 0.607141,-3.91044 -1.693297,-3.15975 -1.582162,0.51629 -1.827118,2.38145 -0.412439,3.14042 0.894463,0.47988 1.19954,0.48267 2.105736,0.0193 z m 24.662439,13.18899 c 7.0043,-1.23496 12.09896,-7.00673 12.09155,-13.6986 -0.004,-3.56885 -0.99767,-6.28834 -3.31463,-9.0711 l -1.22096,-1.46643 0.83064,-0.84737 c 1.73104,-1.76591 0.284,-3.027 -1.49853,-1.30597 l -0.94257,0.91006 -1.78173,-0.86653 c -0.97995,-0.47661 -2.53138,-1.00488 -3.44763,-1.17393 -0.91626,-0.16907 -1.81008,-0.3464 -1.98628,-0.39407 -0.19626,-0.0531 -0.32037,-0.53149 -0.32037,-1.23499 v -1.14831 h 2.06583 2.06583 l -0.0795,-0.9503 -0.0795,-0.95031 -4.93367,-0.0689 -4.93366,-0.0689 v 1.01914 1.01912 h 1.92221 1.9222 v 1.12888 c 0,1.10729 -0.0184,1.13193 -0.9611,1.2878 -5.59325,0.92482 -10.10187,4.47909 -11.89478,9.377 -0.69232,1.89131 -0.92527,5.68325 -0.47262,7.69362 1.02557,4.55495 5.24044,9.02832 9.73437,10.33137 2.89238,0.83866 4.56514,0.94931 7.235,0.47858 z m -5.87971,-2.05208 c -2.09855,-0.55881 -3.74926,-1.50328 -5.56872,-3.18616 -5.77389,-5.3405 -4.92797,-14.15713 1.79728,-18.73224 3.2999,-2.24488 8.46921,-2.64985 12.32082,-0.96526 4.99763,2.18585 8.14521,7.7718 7.27005,12.90201 -0.82485,4.83533 -4.64736,8.85024 -9.50373,9.98211 -2.02569,0.47212 -4.54166,0.47194 -6.3157,-5.1e-4 z m 4.2892,-0.36958 c 0,-0.15089 -0.85545,-0.24129 -2.11443,-0.22344 -1.52003,0.0216 -1.89828,0.0844 -1.34555,0.22344 1.15244,0.28995 3.45998,0.28995 3.45998,0 z m 2.85471,-0.40181 c 0.11688,-0.0714 -0.41995,-1.37677 -1.19295,-2.90078 -0.77301,-1.524 -1.40547,-2.82983 -1.40547,-2.90184 0,-0.072 0.4325,-0.13344 0.96111,-0.13649 1.34512,-0.008 2.95081,-0.79465 3.67755,-1.80217 0.60283,-0.83573 0.61694,-0.97756 0.69193,-6.95828 l 0.0765,-6.10515 -1.58339,-0.7026 c -6.01794,-2.67035 -13.14621,-0.19089 -16.02836,5.57521 -0.79789,1.59627 -0.94743,2.17846 -1.05971,4.12562 -0.10709,1.85696 -0.0305,2.59326 0.42311,4.07001 l 0.55385,1.80292 h 4.73739 4.7374 l 0.56032,1.14036 c 0.34585,0.70385 0.73144,1.14037 1.00733,1.14037 0.24583,0 0.62499,0.25129 0.84257,0.55843 0.33736,0.47624 0.34432,0.63475 0.0474,1.07701 -0.47267,0.70389 -1.49785,0.67483 -1.82018,-0.0516 -0.24473,-0.55156 -0.36817,-0.57018 -3.78034,-0.57018 -1.94004,0 -3.52735,0.0595 -3.52735,0.13224 0,0.0727 0.70987,0.58589 1.5775,1.14037 l 1.57751,1.00812 h 3.17198 c 2.67477,0 3.19672,0.0637 3.32978,0.40656 0.12425,0.32017 0.376,0.37205 1.18491,0.24415 0.56491,-0.0894 1.12275,-0.22083 1.23963,-0.29226 z m -1.88936,-7.93541 c -1.09635,-1.01405 -1.9684,-1.58875 -2.71063,-1.78637 -0.85195,-0.22683 -1.18482,-0.47908 -1.50313,-1.13908 -0.47604,-0.98706 -0.31007,-1.98137 0.43619,-2.61316 0.41727,-0.35325 0.50557,-0.75015 0.50557,-2.2723 v -1.8443 h 1.28148 1.28146 v 1.85644 c 0,1.67093 0.0665,1.91783 0.66443,2.4708 0.54454,0.50349 0.64213,0.7808 0.54076,1.53679 -0.11431,0.85257 -0.01,1.03413 1.38298,2.39661 l 1.50664,1.47418 -0.68573,0.70771 c -0.37715,0.38924 -0.77527,0.70771 -0.8847,0.70771 -0.10944,0 -0.92633,-0.67276 -1.81532,-1.49503 z m 2.34031,0.38584 c 0.23365,-0.27837 -0.12287,-0.73566 -1.76268,-2.26095 l -2.05557,-1.912 v -2.68063 c 0,-2.51169 -0.0323,-2.68063 -0.51258,-2.68063 -0.48392,0 -0.5126,0.16894 -0.5126,3.02053 v 3.02052 l 2.11146,1.92105 c 1.1613,1.05659 2.18517,1.92106 2.27526,1.92106 0.0901,0 0.29562,-0.15703 0.45671,-0.34895 z m -4.93185,-2.90204 c -0.26726,-0.292 -0.42417,-0.90132 -0.42417,-1.64719 0,-1.28833 -0.35881,-1.54132 -0.8069,-0.56892 -0.39814,0.86401 -0.0791,1.84014 0.74609,2.28287 0.92341,0.4954 0.991,0.4861 0.48498,-0.0668 z m 2.65137,-1.32713 c 0,-0.6451 -0.44421,-1.50383 -0.77791,-1.50383 -0.32679,0 -0.31599,0.92001 0.018,1.53714 0.34859,0.64402 0.75987,0.62598 0.75987,-0.0333 z m -11.63439,1.14753 c -0.78212,-0.77333 -0.34361,-1.89112 0.74188,-1.89112 0.93561,0 1.46101,0.9202 0.95718,1.6764 -0.35067,0.52631 -1.26683,0.64209 -1.69906,0.21472 z m 1.19409,-0.52211 c 0.24459,-0.24183 -0.0896,-0.86217 -0.46451,-0.86217 -0.42933,0 -0.70944,0.42564 -0.5003,0.76024 0.17506,0.28005 0.72582,0.33824 0.96481,0.10193 z m 7.67232,-7.50164 c -0.42155,-0.4168 -0.38665,-1.34283 0.0646,-1.7131 0.49923,-0.40968 1.156,-0.25099 1.58013,0.38176 0.66279,0.9888 -0.79649,2.17004 -1.64471,1.33134 z m 1.18142,-0.89962 c -0.0475,-0.24391 -0.25622,-0.44347 -0.46379,-0.44347 -0.20759,0 -0.4163,0.19956 -0.4638,0.44347 -0.0606,0.31116 0.0778,0.44348 0.4638,0.44348 0.38601,0 0.5244,-0.13232 0.46379,-0.44348 z m 5.81839,18.4629 c 1.41325,-0.80154 3.44321,-2.74849 4.27531,-4.10049 2.04005,-3.31468 1.99328,-8.50297 -0.10622,-11.78262 -0.36314,-0.56726 -1.21974,-1.58491 -1.90357,-2.26147 l -1.24332,-1.23008 -0.12814,5.93597 c -0.11557,5.3529 -0.17891,6.02309 -0.64491,6.82291 -0.55572,0.95384 -2.81803,2.28073 -3.88854,2.28073 -0.57936,0 -0.55886,0.0754 0.68903,2.53415 0.70738,1.39378 1.37159,2.53307 1.47603,2.53177 0.10444,-9.6e-4 0.76788,-0.3302 1.47433,-0.73087 z m 1.6674,-9.77815 c -0.54667,-0.65128 0.0673,-1.70807 0.93296,-1.60576 0.87137,0.10297 1.34439,0.79964 0.95762,1.4104 -0.37089,0.5857 -1.46782,0.69905 -1.89058,0.19536 z m 1.46931,-0.57535 c 0.15143,-0.44969 -0.71021,-0.71843 -0.97014,-0.30257 -0.11743,0.18788 -0.15271,0.43887 -0.0784,0.55778 0.18968,0.30348 0.92026,0.12565 1.04851,-0.25521 z m -8.9551,8.86937 c -0.0475,-0.24391 -0.25622,-0.44347 -0.46379,-0.44347 -0.20759,0 -0.4163,0.19956 -0.4638,0.44347 -0.0606,0.31116 0.0778,0.44348 0.4638,0.44348 0.38601,0 0.5244,-0.13232 0.46379,-0.44348 z m -1.79967,-1.71055 -0.56033,-1.14037 h -4.30594 c -2.36825,0 -4.30593,0.088 -4.30593,0.19569 0,0.10762 0.3544,0.62078 0.78754,1.14036 l 0.78755,0.94468 h 4.07872 4.07872 z m -6.83754,5.57511 -1.87064,-1.14036 h -6.97634 -6.97634 l -0.43191,0.89555 c -0.237552,0.49256 -0.431911,1.00572 -0.431911,1.14036 0,0.15298 3.481064,0.24482 9.278881,0.24482 h 9.27889 z m -4.8976,-4.57155 c 0,-0.0753 -0.23301,-0.58841 -0.5178,-1.14036 l -0.51779,-1.00357 h -3.53185 -3.531838 l -0.56033,1.14037 -0.560329,1.14036 H 100.405 c 2.53548,0 4.60996,-0.0616 4.60996,-0.1368 z m 11.08474,-22.25625 c 0.24668,-0.11827 0.44851,-0.48794 0.44851,-0.82147 0,-0.58909 -0.0586,-0.60642 -2.05036,-0.60642 h -2.05036 v -1.52049 -1.52048 h 3.84442 3.84442 v -5.39203 c 0,-4.47597 -0.0679,-5.48795 -0.4,-5.95668 -0.7834,-1.1059 -1.6487,-1.32201 -5.29312,-1.32201 -3.29248,0 -3.42079,-0.0199 -3.66492,-0.57018 -0.24671,-0.55602 -0.3517,-0.57018 -4.22556,-0.57018 -3.87387,0 -3.97885,0.0142 -4.22556,0.57018 -0.24414,0.55022 -0.37245,0.57018 -3.664925,0.57018 -2.525752,0 -3.60428,0.0984 -4.152524,0.37868 -1.536326,0.78553 -1.540597,0.81023 -1.540597,8.90923 0,6.48602 0.05137,7.45202 0.415384,7.81195 0.372532,0.36834 1.542495,0.40267 11.341022,0.33274 6.00911,-0.0429 11.12747,-0.17474 11.37417,-0.29302 z m 4.03663,-0.79435 c 0,-0.34845 -0.11533,-0.63354 -0.2563,-0.63354 -0.14096,0 -0.25629,0.28509 -0.25629,0.63354 0,0.34844 0.11533,0.63353 0.25629,0.63353 0.14097,0 0.2563,-0.28509 0.2563,-0.63353 z"
               style="fill:#000000;stroke-width:0.25485027" />
            <path
               transform="matrix(0.96867168,0,0,0.95778646,1.8381592,8.1980947)"
               inkscape:connector-curvature="0"
               id="path7317"
               d="m 89.029701,165.48239 c 2.776719,-5.46786 5.048579,-9.97899 5.048579,-10.02472 0,-0.0457 -0.446484,-0.1648 -0.992187,-0.2646 -1.649778,-0.3017 -3.128352,-1.32946 -3.744899,-2.60307 -0.545564,-1.12699 -0.55458,-1.42442 -0.55458,-18.29544 0,-12.37934 0.08655,-17.43872 0.311154,-18.18838 0.482377,-1.61002 2.102617,-3.26363 3.831646,-3.91054 1.444018,-0.54028 1.822985,-0.55186 15.667986,-0.47882 13.99652,0.0738 14.20271,0.0826 15.26455,0.651 1.43172,0.76635 2.92355,2.45637 3.27016,3.7046 0.17369,0.62548 0.28128,4.61949 0.28219,10.47544 l 0.002,9.46453 0.66808,0.30439 c 0.595,0.2711 0.76279,0.2126 1.53395,-0.53484 0.91444,-0.88631 2.17106,-1.12281 2.77214,-0.52173 0.55607,0.55607 0.36773,1.85007 -0.38339,2.63406 l -0.70088,0.73157 0.76703,0.95111 c 2.6401,3.27372 3.67003,6.09522 3.66862,10.05013 -8e-4,2.08036 -0.13318,3.03183 -0.61963,4.45185 -1.25242,3.65601 -4.28203,7.15443 -7.62822,8.8086 l -1.3775,0.68097 2.89886,5.79314 c 1.59426,3.18622 2.89875,5.8537 2.89875,5.92773 0,0.074 -0.86817,0.13459 -1.92926,0.13459 h -1.92926 l -0.7137,-1.45521 -0.7137,-1.45521 H 108.1012 89.574614 l -0.713701,1.45521 -0.713701,1.45521 h -2.083045 -2.083045 z m -0.58197,7.95719 0.713701,-1.4552 h 18.865468 18.86546 l 0.7137,1.4552 0.71371,1.45521 h 1.40009 c 0.77004,0 1.40009,-0.0588 1.40009,-0.13062 0,-0.0718 -1.21982,-2.5737 -2.71069,-5.55967 -2.06782,-4.14148 -2.80512,-5.3915 -3.10886,-5.27072 -0.98478,0.3916 -3.96871,0.89766 -5.29295,0.89766 -0.80037,0 -2.2886,-0.17653 -3.3072,-0.39228 -1.46107,-0.30948 -4.09983,-0.39229 -12.50156,-0.39229 -6.762477,0 -10.649576,-0.0944 -10.649576,-0.25872 0,-0.14229 0.322459,-0.9162 0.716576,-1.71979 l 0.716575,-1.46107 h 6.956345 c 3.82598,0 6.95303,-0.0893 6.94899,-0.19844 -0.004,-0.10914 -0.36123,-0.5457 -0.79375,-0.97014 -0.43252,-0.42443 -0.7864,-0.87091 -0.7864,-0.99218 0,-0.12127 -2.49526,-0.22049 -5.54502,-0.22049 h -5.545013 l 0.781673,-1.65364 0.781669,-1.65365 3.676981,-0.0732 3.67698,-0.0732 -0.39869,-1.24968 c -0.64475,-2.02093 -0.58532,-6.16697 0.12068,-8.4179 1.14845,-3.66164 3.92159,-7.01904 7.47782,-9.0533 l 1.45521,-0.83243 -9.42317,-0.006 c -9.12796,-0.006 -9.445018,-0.023 -10.120317,-0.55421 l -0.697139,-0.54837 9.89e-4,-7.85215 c 9.09e-4,-7.21575 0.04127,-7.9182 0.49793,-8.66708 0.833641,-1.36707 1.925906,-1.69861 5.596144,-1.69861 3.112903,0 3.260463,-0.0254 3.849983,-0.66146 0.60172,-0.64927 0.68661,-0.66146 4.60704,-0.66146 3.92042,0 4.00531,0.0122 4.60703,0.66146 0.58953,0.63611 0.73708,0.66146 3.84999,0.66146 3.59342,0 4.65109,0.30277 5.5711,1.59481 0.48333,0.67878 0.52396,1.17888 0.52396,6.44968 v 5.71384 h 1.5875 1.5875 v 1.5875 1.5875 h -1.56993 c -1.51596,0 -1.5728,0.025 -1.65364,0.7276 -0.0786,0.683 0.0136,0.75424 1.50378,1.16189 0.87312,0.23886 1.85539,0.52064 2.18281,0.62618 l 0.59531,0.19188 v -9.37612 -9.37613 l -0.7276,-1.43521 c -0.54632,-1.07764 -1.05196,-1.63331 -2.02943,-2.23026 l -1.30182,-0.79504 -13.77943,-0.0807 c -7.57868,-0.0444 -14.273291,-0.009 -14.876905,0.0783 -1.698425,0.24614 -3.394129,1.51849 -4.189001,3.14315 l -0.677757,1.38528 0.0717,17.58075 0.0717,17.58075 0.635283,0.89073 c 0.750245,1.05192 2.40787,1.87345 3.796488,1.88159 0.545703,0.003 0.992187,0.066 0.992187,0.13949 0,0.0735 -2.202656,4.53775 -4.894791,9.92048 -2.692135,5.38274 -4.894792,9.84696 -4.894792,9.92049 0,0.0735 0.596606,0.13368 1.325792,0.13368 h 1.325791 z m 2.771684,-5.4901 0.87449,-1.65365 h 16.007295 16.00729 l 0.87449,1.65365 0.87449,1.65365 H 108.1012 90.344924 Z m 33.550535,1.11394 c 0,-0.15132 -0.24055,-0.74663 -0.53455,-1.32292 l -0.53454,-1.04779 H 108.1012 92.501535 l -0.534544,1.04779 c -0.293999,0.57629 -0.534544,1.1716 -0.534544,1.32292 0,0.18753 5.306899,0.27512 16.668753,0.27512 11.36185,0 16.66875,-0.0876 16.66875,-0.27512 z M 95.193759,150.78121 c -1.653897,-0.47182 -2.107732,-2.70454 -0.797802,-3.92493 1.389498,-1.29451 4.444823,-0.25619 4.444823,1.51053 0,0.93745 -0.710136,2.12644 -1.38616,2.32085 -1.145709,0.32949 -1.397322,0.3399 -2.260861,0.0935 z m 2.053909,-0.62206 c 2.190044,-1.13252 0.626777,-4.08278 -1.74806,-3.29901 -1.633332,0.53905 -1.88621,2.48641 -0.425778,3.27883 0.923391,0.50103 1.238335,0.50395 2.173838,0.0202 z m 25.460062,13.77029 c 7.23083,-1.28939 12.49026,-7.31555 12.48261,-14.30236 -0.004,-3.72614 -1.02994,-6.56549 -3.42183,-9.4709 l -1.26045,-1.53106 0.8575,-0.88472 c 1.78703,-1.84374 0.29319,-3.16041 -1.54699,-1.36352 l -0.97306,0.95017 -1.83935,-0.90473 c -1.01164,-0.49761 -2.61325,-1.04916 -3.55913,-1.22567 -0.94589,-0.17652 -1.86862,-0.36166 -2.05052,-0.41143 -0.20261,-0.0554 -0.33073,-0.55492 -0.33073,-1.28942 v -1.19893 h 2.13264 2.13264 l -0.0821,-0.99218 -0.0821,-0.99219 -5.09323,-0.0719 -5.09323,-0.0719 v 1.06405 1.06404 h 1.98438 1.98437 v 1.17864 c 0,1.15609 -0.019,1.18181 -0.99218,1.34455 -5.77415,0.96558 -10.42859,4.67651 -12.27948,9.79029 -0.71471,1.97466 -0.95519,5.93373 -0.48791,8.03271 1.05874,4.7557 5.40993,9.42623 10.0492,10.78671 2.98592,0.87562 4.71278,0.99115 7.46899,0.49967 z m -6.06987,-2.14253 c -2.16642,-0.58344 -3.87052,-1.56953 -5.74882,-3.32658 -5.96063,-5.57588 -5.08735,-14.7811 1.85541,-19.55785 3.40662,-2.34382 8.74311,-2.76664 12.71929,-1.0078 5.15926,2.28219 8.40864,8.11433 7.50517,13.47065 -0.85152,5.04844 -4.79766,9.24031 -9.81109,10.42206 -2.09121,0.49293 -4.68855,0.49274 -6.51996,-5.3e-4 z m 4.42792,-0.38587 c 0,-0.15754 -0.88312,-0.25192 -2.18281,-0.23328 -1.56919,0.0225 -1.95968,0.0881 -1.38907,0.23328 1.18971,0.30273 3.57188,0.30273 3.57188,0 z m 2.94703,-0.41951 c 0.12066,-0.0746 -0.43353,-1.43745 -1.23153,-3.02863 -0.79801,-1.59117 -1.45092,-2.95456 -1.45092,-3.02974 0,-0.0752 0.44649,-0.13932 0.99219,-0.14251 1.38862,-0.008 3.04624,-0.82967 3.79649,-1.88159 0.62233,-0.87257 0.63689,-1.02065 0.71431,-7.26496 l 0.079,-6.37423 -1.6346,-0.73357 c -6.21257,-2.78804 -13.57138,-0.1993 -16.54674,5.82093 -0.82369,1.66663 -0.97807,2.27448 -1.09398,4.30746 -0.11055,1.9388 -0.0315,2.70755 0.43679,4.24939 l 0.57176,1.88238 h 4.89061 4.89061 l 0.57845,1.19062 c 0.35703,0.73487 0.75509,1.19063 1.0399,1.19063 0.25379,0 0.64521,0.26237 0.86982,0.58304 0.34827,0.49723 0.35546,0.66273 0.0489,1.12448 -0.48796,0.73491 -1.5463,0.70457 -1.87905,-0.0539 -0.25265,-0.57587 -0.38008,-0.59531 -3.9026,-0.59531 -2.00279,0 -3.64143,0.0621 -3.64143,0.13806 0,0.0759 0.73283,0.61172 1.62852,1.19063 l 1.62852,1.05256 h 3.27457 c 2.76128,0 3.30011,0.0665 3.43747,0.42447 0.12827,0.33429 0.38816,0.38845 1.22323,0.25492 0.58318,-0.0933 1.15906,-0.23057 1.27972,-0.30515 z m -1.95046,-8.28516 c -1.13181,-1.05874 -2.03206,-1.65877 -2.7983,-1.8651 -0.8795,-0.23683 -1.22314,-0.5002 -1.55174,-1.18929 -0.49144,-1.03056 -0.3201,-2.06869 0.4503,-2.72833 0.43076,-0.36882 0.52192,-0.78321 0.52192,-2.37245 v -1.92558 h 1.32292 1.32291 v 1.93826 c 0,1.74457 0.0686,2.00235 0.68592,2.57969 0.56215,0.52568 0.66289,0.81522 0.55825,1.60453 -0.11801,0.89014 -0.01,1.0797 1.4277,2.50224 l 1.55537,1.53915 -0.70791,0.7389 c -0.38935,0.4064 -0.80034,0.7389 -0.91331,0.7389 -0.11298,0 -0.95629,-0.70241 -1.87403,-1.56092 z m 2.416,0.40285 c 0.24121,-0.29064 -0.12684,-0.76809 -1.81969,-2.3606 l -2.12205,-1.99627 v -2.79878 c 0,-2.62239 -0.0333,-2.79878 -0.52916,-2.79878 -0.49957,0 -0.52917,0.17639 -0.52917,3.15366 v 3.15365 l 2.17974,2.00572 c 1.19886,1.10315 2.25584,2.00572 2.34885,2.00572 0.093,0 0.30518,-0.16395 0.47148,-0.36432 z m -5.09135,-3.02995 c -0.27591,-0.30487 -0.43789,-0.94104 -0.43789,-1.71979 0,-1.34511 -0.37042,-1.60925 -0.833,-0.59399 -0.41102,0.90209 -0.0817,1.92124 0.77022,2.38348 0.95328,0.51724 1.02305,0.50753 0.50067,-0.0697 z m 2.73711,-1.38562 c 0,-0.67353 -0.45857,-1.57011 -0.80306,-1.57011 -0.33736,0 -0.32621,0.96056 0.0186,1.60489 0.35986,0.6724 0.78444,0.65357 0.78444,-0.0348 z m -12.01066,1.1981 c -0.80741,-0.80741 -0.35472,-1.97446 0.76587,-1.97446 0.96587,0 1.50827,0.96075 0.98814,1.75028 -0.36201,0.54951 -1.3078,0.67039 -1.75401,0.22418 z m 1.23271,-0.54512 c 0.2525,-0.25249 -0.0925,-0.90017 -0.47953,-0.90017 -0.44322,0 -0.73239,0.4444 -0.51648,0.79375 0.18072,0.29239 0.74929,0.35315 0.99601,0.10642 z m 7.92045,-7.83226 c -0.43518,-0.43518 -0.39915,-1.40202 0.0667,-1.78861 0.51538,-0.42773 1.19339,-0.26205 1.63124,0.39859 0.68422,1.03238 -0.82225,2.26568 -1.69791,1.39002 z m 1.21963,-0.93927 c -0.049,-0.25466 -0.2645,-0.46302 -0.47879,-0.46302 -0.2143,0 -0.42976,0.20836 -0.4788,0.46302 -0.0626,0.32487 0.0803,0.46302 0.4788,0.46302 0.3985,0 0.54136,-0.13815 0.47879,-0.46302 z m 6.00657,19.27663 c 1.45896,-0.83687 3.55457,-2.86963 4.41358,-4.28121 2.10603,-3.46078 2.05774,-8.87774 -0.10966,-12.30193 -0.37488,-0.59226 -1.25919,-1.65477 -1.96513,-2.36114 l -1.28353,-1.2843 -0.13229,6.19759 c -0.1193,5.58883 -0.18469,6.28855 -0.66576,7.12363 -0.5737,0.99588 -2.90917,2.38125 -4.0143,2.38125 -0.5981,0 -0.57694,0.0787 0.71131,2.64584 0.73026,1.45521 1.41595,2.64471 1.52377,2.64335 0.10781,-10e-4 0.79271,-0.34475 1.52201,-0.76308 z m 1.72132,-10.20911 c -0.56435,-0.67999 0.0695,-1.78335 0.96314,-1.67654 0.89955,0.10751 1.38787,0.83489 0.98859,1.47257 -0.38289,0.61151 -1.51529,0.72986 -1.95173,0.20397 z m 1.51683,-0.60071 c 0.15633,-0.46951 -0.73317,-0.75009 -1.00151,-0.31591 -0.12123,0.19616 -0.15765,0.45822 -0.0809,0.58237 0.19582,0.31685 0.95003,0.13119 1.08243,-0.26646 z m -9.24472,9.26028 c -0.049,-0.25466 -0.2645,-0.46302 -0.47879,-0.46302 -0.2143,0 -0.42976,0.20836 -0.4788,0.46302 -0.0626,0.32487 0.0803,0.46302 0.4788,0.46302 0.3985,0 0.54136,-0.13815 0.47879,-0.46302 z m -1.85787,-1.78594 -0.57845,-1.19063 h -4.4452 c -2.44485,0 -4.44519,0.0919 -4.44519,0.20431 0,0.11236 0.36586,0.64814 0.81301,1.19062 l 0.81302,0.98632 h 4.21063 4.21063 z m -7.05868,5.82083 -1.93114,-1.19062 h -7.20196 -7.201968 l -0.445879,0.93502 c -0.245234,0.51426 -0.445879,1.05004 -0.445879,1.19062 0,0.15972 3.593647,0.25561 9.578976,0.25561 h 9.57898 z m -5.05599,-4.77304 c 0,-0.0786 -0.24055,-0.61434 -0.53455,-1.19062 l -0.53454,-1.0478 h -3.64607 -3.646065 l -0.578451,1.19063 -0.578451,1.19062 h 4.759067 c 2.61748,0 4.75906,-0.0643 4.75906,-0.14283 z m 11.44323,-23.23717 c 0.25466,-0.12349 0.46302,-0.50945 0.46302,-0.85768 0,-0.61505 -0.0605,-0.63315 -2.11667,-0.63315 h -2.11667 v -1.5875 -1.5875 h 3.96875 3.96875 v -5.62967 c 0,-4.67325 -0.0701,-5.72983 -0.41293,-6.21922 -0.80874,-1.15464 -1.70202,-1.38028 -5.46431,-1.38028 -3.39896,0 -3.53142,-0.0208 -3.78345,-0.59531 -0.25469,-0.58052 -0.36307,-0.59531 -4.36222,-0.59531 -3.99916,0 -4.10753,0.0148 -4.36222,0.59531 -0.25204,0.57447 -0.3845,0.59531 -3.783455,0.59531 -2.607439,0 -3.720848,0.10269 -4.286823,0.39537 -1.586013,0.82016 -1.590422,0.84594 -1.590422,9.3019 0,6.77189 0.05303,7.78046 0.428818,8.15625 0.38458,0.38458 1.592382,0.42042 11.707812,0.34741 6.20345,-0.0448 11.48735,-0.18244 11.74202,-0.30593 z m 4.16718,-0.82937 c 0,-0.3638 -0.11906,-0.66146 -0.26458,-0.66146 -0.14552,0 -0.26458,0.29766 -0.26458,0.66146 0,0.3638 0.11906,0.66146 0.26458,0.66146 0.14552,0 0.26458,-0.29766 0.26458,-0.66146 z"
               style="fill:url(#linearGradient7333);fill-opacity:1;stroke-width:0.26458332;filter:url(#filter6607)" />
            <path
               inkscape:connector-curvature="0"
               id="path7319"
               d="m 114.21834,164.7996 c -3.95118,-1.12459 -7.46469,-4.07748 -9.35632,-7.86341 l -0.99954,-2.0005 v -3.5963 c 0,-3.53415 0.0147,-3.62699 0.85044,-5.37202 2.11374,-4.41351 5.51289,-7.09485 10.54101,-8.31505 l 1.81227,-0.43979 0.0789,-1.1984 0.0789,-1.1984 h -1.95591 -1.95591 v -0.89595 -0.89596 h 4.75939 c 4.71681,0 4.76079,0.005 4.9155,0.57597 0.31972,1.17963 0.26273,1.21594 -1.90799,1.21594 h -2.07118 v 1.14294 c 0,1.31949 0.14121,1.42942 2.45952,1.91489 0.85436,0.17891 2.37767,0.69923 3.38514,1.15628 l 1.83176,0.83099 0.94757,-0.85863 c 1.77845,-1.61152 2.8573,-0.61505 1.18316,1.09281 l -0.80761,0.82388 1.23516,1.49219 c 4.76045,5.75106 4.48839,13.3581 -0.66244,18.52228 -1.86835,1.87318 -4.38081,3.27297 -7.10241,3.95702 -2.0132,0.50599 -5.30745,0.4648 -7.25943,-0.0908 z m 8.02579,-1.87613 c 5.67799,-1.83112 9.42754,-7.72576 8.46064,-13.30091 -0.84241,-4.8574 -4.48787,-8.85774 -9.20326,-10.09919 -0.7307,-0.19238 -2.16747,-0.35115 -3.19281,-0.35282 -3.94078,-0.006 -6.59251,1.02463 -9.15936,3.56134 -3.8723,3.82685 -4.88444,9.09647 -2.65074,13.80092 0.97616,2.0559 3.86096,4.84904 6.09053,5.89699 2.90046,1.36329 6.40312,1.54239 9.655,0.49367 z"
               style="opacity:0.92900002;fill:#ffcc00;fill-opacity:0.60386472;stroke:#fff6d5;stroke-width:3.85512924;stroke-linejoin:round;stroke-miterlimit:4;stroke-dasharray:none;stroke-opacity:0.5024155" />
            <path
               inkscape:connector-curvature="0"
               id="path7321"
               d="m 115.38338,165.00796 c -4.00527,-0.67623 -8.23159,-3.89977 -10.31404,-7.86681 l -1.11358,-2.12136 0.0828,-3.89434 c 0.0822,-3.86742 0.0891,-3.90673 0.98895,-5.68612 1.09894,-2.17304 3.88867,-5.05031 5.95461,-6.14149 0.78317,-0.41364 2.47247,-1.05083 3.754,-1.41598 l 2.33007,-0.6639 0.0789,-1.20111 0.0789,-1.20112 h -1.95591 -1.95591 v -0.89595 -0.89596 h 4.5122 c 3.7568,0 4.5803,0.0674 4.91903,0.40227 0.98889,0.97778 0.37425,1.38964 -2.07385,1.38964 h -1.66166 v 1.13684 c 0,0.62526 0.10707,1.20226 0.23792,1.28222 0.13086,0.08 1.20851,0.42476 2.39479,0.76622 1.18629,0.34145 2.79078,0.89883 3.56555,1.23862 l 1.40867,0.6178 1.1354,-0.85693 c 1.27143,-0.9596 1.56097,-1.03425 1.78386,-0.45994 0.0914,0.23538 -0.18104,0.80931 -0.66907,1.40978 l -0.82314,1.01277 1.14267,1.47008 c 2.27932,2.93243 3.28597,5.65474 3.28597,8.88639 0,3.76621 -1.07959,6.48127 -3.66321,9.21258 -3.3578,3.54976 -8.58538,5.29273 -13.42395,4.4758 z m 6.08406,-1.82168 c 4.54116,-1.13739 8.45624,-5.38958 9.26601,-10.06387 0.85757,-4.95018 -2.24114,-10.51793 -7.13181,-12.8144 -3.40112,-1.59703 -8.00016,-1.52009 -11.42876,0.19122 -1.86089,0.92882 -4.17673,3.14971 -5.28898,5.07214 -2.30932,3.99147 -1.97718,9.23314 0.80994,12.78218 3.46645,4.41406 8.45574,6.16465 13.7736,4.83273 z"
               style="opacity:1;fill:#ffcc00;fill-opacity:0.60386472;stroke:#fff6d5;stroke-width:3.85512924;stroke-linejoin:round;stroke-miterlimit:4;stroke-dasharray:none;stroke-opacity:0.5024155" />
            <path
               inkscape:connector-curvature="0"
               id="path7323"
               d="m 119.8109,153.17753 -2.11161,-1.85063 0.0718,-2.88081 c 0.0931,-3.73655 0.56433,-3.94502 0.66269,-0.29318 l 0.0731,2.71371 1.67415,1.46235 c 0.92078,0.80428 1.79111,1.67842 1.93406,1.94251 0.58343,1.07791 -0.31003,0.65372 -2.30418,-1.09395 z"
               style="opacity:1;fill:#ffffff;fill-opacity:0.60386472;stroke:#fff6d5;stroke-width:3.85512924;stroke-linejoin:round;stroke-miterlimit:4;stroke-dasharray:none;stroke-opacity:0.5024155" />
          </g>
        </g>
      </g>
    </g>
  </g>
</svg>
