<?xml version="1.0" encoding="UTF-8" standalone="no"?>
<svg
   xmlns:dc="http://purl.org/dc/elements/1.1/"
   xmlns:cc="http://creativecommons.org/ns#"
   xmlns:rdf="http://www.w3.org/1999/02/22-rdf-syntax-ns#"
   xmlns:svg="http://www.w3.org/2000/svg"
   xmlns="http://www.w3.org/2000/svg"
   xml:space="preserve"
   enable-background="new 0 0 512 512"
   viewBox="0 0 67.258789 81.2285"
   height="81.2285"
   width="67.258789"
   y="0px"
   x="0px"
   id="Layer_1"
   version="1.1"><metadata
   id="metadata11"><rdf:RDF><cc:Work
       rdf:about=""><dc:format>image/svg+xml</dc:format><dc:type
         rdf:resource="http://purl.org/dc/dcmitype/StillImage" /><dc:title></dc:title></cc:Work></rdf:RDF></metadata><defs
   id="defs9" />
<g
   transform="translate(-94.358,-368.3715)"
   id="g4746"><path
     style="display:inline;fill:#000000;stroke-width:0.21096608"
     id="path2-0"
     d="m 100.782,440.63735 c 0,4.93007 4.05845,8.96265 9.01978,8.96265 h 36.07864 c 4.96113,0 9.01958,-4.03258 9.01958,-8.96265 V 388.966 h -54.118 z" /><path
     id="path836"
     d="m 116.62228,368.55108 c -1.8119,2.61321 -3.62384,5.2263 -5.43581,7.83949 -5.60949,0 -11.21898,0 -16.82847,0 0,3.00719 0,6.01425 0,9.02143 22.41955,0 44.83922,0 67.25879,0 0,-3.00718 0,-6.01424 0,-9.02143 -5.6095,0 -11.21899,0 -16.82848,0 -1.8534,-2.67307 -3.70695,-5.34592 -5.56033,-8.01907 -7.49369,0 -14.98744,0 -22.48116,0 z"
     style="fill:#000000;stroke-width:0.2280809" /></g><g
   style="display:inline;fill:#ffffff"
   transform="matrix(0.2,0,0,0.2,-17.558,-9.9715)"
   id="g4">
	<path
   style="fill:#ffffff"
   id="path2"
   d="M 128,405.429 C 128,428.846 147.198,448 170.667,448 H 341.334 C 364.802,448 384,428.846 384,405.429 V 160 H 128 Z M 416,96 H 336 L 309.215,64 H 202.786 L 176,96 H 96 v 32 h 320 z" />
</g>
</svg>