<?xml version="1.0" encoding="UTF-8" standalone="no"?>
<!-- Created with Inkscape (http://www.inkscape.org/) -->

<svg
   xmlns:dc="http://purl.org/dc/elements/1.1/"
   xmlns:cc="http://creativecommons.org/ns#"
   xmlns:rdf="http://www.w3.org/1999/02/22-rdf-syntax-ns#"
   xmlns:svg="http://www.w3.org/2000/svg"
   xmlns="http://www.w3.org/2000/svg"
   xmlns:sodipodi="http://sodipodi.sourceforge.net/DTD/sodipodi-0.dtd"
   xmlns:inkscape="http://www.inkscape.org/namespaces/inkscape"
   width="21.25609mm"
   height="21.03861mm"
   viewBox="0 0 21.25609 21.038611"
   version="1.1"
   id="svg7354"
   inkscape:version="0.92.4 (5da689c313, 2019-01-14)"
   sodipodi:docname="yellowAtom.svg">
  <defs
     id="defs7348" />
  <sodipodi:namedview
     id="base"
     pagecolor="#ffffff"
     bordercolor="#666666"
     borderopacity="1.0"
     inkscape:pageopacity="0.0"
     inkscape:pageshadow="2"
     inkscape:zoom="1.8667619"
     inkscape:cx="-90.338272"
     inkscape:cy="14.855594"
     inkscape:document-units="mm"
     inkscape:current-layer="layer1"
     showgrid="false"
     fit-margin-top="0"
     fit-margin-left="0"
     fit-margin-right="0"
     fit-margin-bottom="0"
     inkscape:window-width="1920"
     inkscape:window-height="1057"
     inkscape:window-x="-8"
     inkscape:window-y="-8"
     inkscape:window-maximized="1" />
  <metadata
     id="metadata7351">
    <rdf:RDF>
      <cc:Work
         rdf:about="">
        <dc:format>image/svg+xml</dc:format>
        <dc:type
           rdf:resource="http://purl.org/dc/dcmitype/StillImage" />
        <dc:title></dc:title>
      </cc:Work>
    </rdf:RDF>
  </metadata>
  <g
     inkscape:label="Layer 1"
     inkscape:groupmode="layer"
     id="layer1"
     transform="translate(-93.437433,-123.70688)">
    <path
       id="path5685"
       d="m 113.85685,131.41848 c -0.44979,-1.08479 -1.69333,-1.5875 -2.77813,-1.13771 -0.89958,0.37042 -1.42875,1.32292 -1.29645,2.24896 l -3.41313,1.42875 c -0.37042,-0.635 -1.03187,-1.11125 -1.77271,-1.24354 v -3.67771 c 0.89959,-0.23813 1.5875,-1.05834 1.5875,-2.03729 0,-1.16417 -0.9525,-2.11667 -2.11666,-2.11667 v 0 c -1.16417,0 -2.11667,0.9525 -2.11667,2.11667 0,0.97895 0.68791,1.79916 1.5875,2.03729 v 3.65125 c -0.76729,0.13229 -1.40229,0.60854 -1.77271,1.24354 l -3.413127,-1.42875 c 0.1323,-0.92604 -0.37041,-1.87854 -1.29645,-2.24896 -1.0848,-0.44979 -2.32834,0.0529 -2.77813,1.13771 -0.44979,1.08479 0.0529,2.32833 1.13771,2.77812 0.89958,0.37042 1.93146,0.0794 2.48708,-0.68791 l 3.492497,1.42875 c -0.0265,0.10583 -0.0265,0.23812 -0.0265,0.34396 0,0.58208 0.18521,1.1377 0.52917,1.5875 l -2.751667,2.77812 c -0.8202,-0.47625 -1.87854,-0.37042 -2.56645,0.3175 -0.82021,0.82021 -0.82021,2.16958 0,2.98979 0.8202,0.82021 2.16958,0.82021 2.98979,0 0.687907,-0.68791 0.793747,-1.74625 0.3175,-2.56646 l 2.804577,-2.80458 c 0.39688,0.23813 0.84667,0.37042 1.32292,0.37042 0.0265,0 0.0265,0 0.0529,0 0.0265,0 0.0265,0 0.0529,0 0.47625,0 0.92604,-0.13229 1.32291,-0.37042 l 2.80459,2.80458 c -0.47625,0.82021 -0.37042,1.87855 0.3175,2.59292 0.82021,0.82021 2.16958,0.82021 2.98979,0 0.82021,-0.82021 0.82021,-2.16958 0,-2.98979 -0.68792,-0.68792 -1.74625,-0.79375 -2.56646,-0.3175 l -2.75167,-2.77813 c 0.34396,-0.44979 0.52917,-0.97895 0.52917,-1.5875 0,-0.10583 0,-0.23812 -0.0265,-0.34395 l 3.4925,-1.42875 c 0.55563,0.74083 1.5875,1.05833 2.48708,0.68791 1.05834,-0.47625 1.5875,-1.69333 1.13771,-2.77812 z"
       inkscape:connector-curvature="0"
       style="fill:#fec306;fill-opacity:1;stroke:#000000;stroke-width:0.35277691;stroke-linecap:butt;stroke-opacity:1"
       inkscape:export-xdpi="147.39999"
       inkscape:export-ydpi="147.39999" />
  </g>
</svg>
